<?xml version="1.0" encoding="UTF-8" standalone="no"?>
<!-- Created with Inkscape (http://www.inkscape.org/) -->

<svg
   xmlns:dc="http://purl.org/dc/elements/1.1/"
   xmlns:cc="http://creativecommons.org/ns#"
   xmlns:rdf="http://www.w3.org/1999/02/22-rdf-syntax-ns#"
   xmlns:svg="http://www.w3.org/2000/svg"
   xmlns="http://www.w3.org/2000/svg"
   xmlns:sodipodi="http://sodipodi.sourceforge.net/DTD/sodipodi-0.dtd"
   xmlns:inkscape="http://www.inkscape.org/namespaces/inkscape"
   width="823.14398"
   height="520.37891"
   id="svg2"
   version="1.1"
   inkscape:version="0.48.3.1 r9886"
   sodipodi:docname="emploi-du-temps-semaine.svg">
  <defs
     id="defs4" />
  <sodipodi:namedview
     id="base"
     pagecolor="#ffffff"
     bordercolor="#666666"
     borderopacity="1.0"
     inkscape:pageopacity="0.0"
     inkscape:pageshadow="2"
     inkscape:zoom="1.4"
     inkscape:cx="250.78975"
     inkscape:cy="268.46385"
     inkscape:document-units="px"
     inkscape:current-layer="layer1"
     showgrid="false"
     inkscape:window-width="1920"
     inkscape:window-height="1080"
     inkscape:window-x="0"
     inkscape:window-y="0"
     inkscape:window-maximized="1"
     fit-margin-top="0"
     fit-margin-left="0"
     fit-margin-right="0"
     fit-margin-bottom="0" />
  <metadata
     id="metadata7">
    <rdf:RDF>
      <cc:Work
         rdf:about="">
        <dc:format>image/svg+xml</dc:format>
        <dc:type
           rdf:resource="http://purl.org/dc/dcmitype/StillImage" />
        <dc:title />
      </cc:Work>
    </rdf:RDF>
  </metadata>
  <g
     inkscape:label="Calque 1"
     inkscape:groupmode="layer"
     id="layer1"
     transform="translate(-15.662442,-366.38053)">
    <text
       xml:space="preserve"
       style="font-size:26.79023743px;font-style:normal;font-variant:normal;font-weight:normal;font-stretch:normal;text-align:start;line-height:125%;letter-spacing:0px;word-spacing:0px;writing-mode:lr-tb;text-anchor:start;fill:#000000;fill-opacity:1;stroke:none;font-family:Comic Sans MS;-inkscape-font-specification:Comic Sans MS"
       x="51.32822"
       y="440.61047"
       id="text2987"
       sodipodi:linespacing="125%"><tspan
         sodipodi:role="line"
         id="tspan2989"
         x="51.32822"
         y="440.61047">Lundi</tspan></text>
    <text
       xml:space="preserve"
       style="font-size:23.44145775px;font-style:normal;font-variant:normal;font-weight:normal;font-stretch:normal;text-align:start;line-height:125%;letter-spacing:0px;word-spacing:0px;writing-mode:lr-tb;text-anchor:start;fill:#000000;fill-opacity:1;stroke:none;font-family:Comic Sans MS;-inkscape-font-specification:Comic Sans MS"
       x="25.298681"
       y="541.21417"
       id="text3869"
       sodipodi:linespacing="125%"><tspan
         sodipodi:role="line"
         x="25.298681"
         y="541.21417"
         id="tspan4044">10h</tspan><tspan
         sodipodi:role="line"
         x="25.298681"
         y="570.51599"
         id="tspan3873">Engagement</tspan></text>
    <text
       xml:space="preserve"
       style="font-size:23.44145775px;font-style:normal;font-variant:normal;font-weight:normal;font-stretch:normal;text-align:start;line-height:125%;letter-spacing:0px;word-spacing:0px;writing-mode:lr-tb;text-anchor:start;fill:#000000;fill-opacity:1;stroke:none;font-family:Comic Sans MS;-inkscape-font-specification:Comic Sans MS"
       x="202.01486"
       y="635.08624"
       id="text3933"
       sodipodi:linespacing="125%"><tspan
         sodipodi:role="line"
         x="202.01486"
         y="635.08624"
         id="tspan3937">12h Daily</tspan></text>
    <text
       xml:space="preserve"
       style="font-size:23.44145775px;font-style:normal;font-variant:normal;font-weight:normal;font-stretch:normal;text-align:start;line-height:125%;letter-spacing:0px;word-spacing:0px;writing-mode:lr-tb;text-anchor:start;fill:#000000;fill-opacity:1;stroke:none;font-family:Comic Sans MS;-inkscape-font-specification:Comic Sans MS"
       x="370.86893"
       y="636.6037"
       id="text3933-5"
       sodipodi:linespacing="125%"><tspan
         sodipodi:role="line"
         x="370.86893"
         y="636.6037"
         id="tspan3937-1">12h Daily</tspan></text>
    <text
       xml:space="preserve"
       style="font-size:23.44145775px;font-style:normal;font-variant:normal;font-weight:normal;font-stretch:normal;text-align:start;line-height:125%;letter-spacing:0px;word-spacing:0px;writing-mode:lr-tb;text-anchor:start;fill:#000000;fill-opacity:1;stroke:none;font-family:Comic Sans MS;-inkscape-font-specification:Comic Sans MS"
       x="531.69958"
       y="637.3985"
       id="text3933-5-2"
       sodipodi:linespacing="125%"><tspan
         sodipodi:role="line"
         x="531.69958"
         y="637.3985"
         id="tspan3937-1-8">12h Daily</tspan></text>
    <text
       xml:space="preserve"
       style="font-size:23.44145775px;font-style:normal;font-variant:normal;font-weight:normal;font-stretch:normal;text-align:start;line-height:125%;letter-spacing:0px;word-spacing:0px;writing-mode:lr-tb;text-anchor:start;fill:#000000;fill-opacity:1;stroke:none;font-family:Comic Sans MS;-inkscape-font-specification:Comic Sans MS"
       x="663.61707"
       y="691.60901"
       id="text3869-3"
       sodipodi:linespacing="125%"><tspan
         sodipodi:role="line"
         id="tspan3871-9"
         x="663.61707"
         y="691.60901">14h</tspan><tspan
         sodipodi:role="line"
         x="663.61707"
         y="720.91083"
         id="tspan3873-2">Démo</tspan></text>
    <text
       xml:space="preserve"
       style="font-size:23.44145775px;font-style:normal;font-variant:normal;font-weight:normal;font-stretch:normal;text-align:start;line-height:125%;letter-spacing:0px;word-spacing:0px;writing-mode:lr-tb;text-anchor:start;fill:#000000;fill-opacity:1;stroke:none;font-family:Comic Sans MS;-inkscape-font-specification:Comic Sans MS"
       x="662.25446"
       y="751.68542"
       id="text3869-3-3"
       sodipodi:linespacing="125%"><tspan
         sodipodi:role="line"
         id="tspan3871-9-1"
         x="662.25446"
         y="751.68542">15h</tspan><tspan
         sodipodi:role="line"
         x="662.25446"
         y="780.98724"
         id="tspan3873-2-5">Rétrospective</tspan></text>
    <text
       xml:space="preserve"
       style="font-size:26.79023743px;font-style:normal;font-variant:normal;font-weight:normal;font-stretch:normal;text-align:start;line-height:125%;letter-spacing:0px;word-spacing:0px;writing-mode:lr-tb;text-anchor:start;fill:#000000;fill-opacity:1;stroke:none;font-family:Comic Sans MS;-inkscape-font-specification:Comic Sans MS"
       x="221.63608"
       y="440.87454"
       id="text2987-7"
       sodipodi:linespacing="125%"><tspan
         sodipodi:role="line"
         id="tspan2989-1"
         x="221.63608"
         y="440.87454">Mardi</tspan></text>
    <text
       xml:space="preserve"
       style="font-size:26.79023743px;font-style:normal;font-variant:normal;font-weight:normal;font-stretch:normal;text-align:start;line-height:125%;letter-spacing:0px;word-spacing:0px;writing-mode:lr-tb;text-anchor:start;fill:#000000;fill-opacity:1;stroke:none;font-family:Comic Sans MS;-inkscape-font-specification:Comic Sans MS"
       x="368.68311"
       y="440.32797"
       id="text2987-7-7"
       sodipodi:linespacing="125%"><tspan
         sodipodi:role="line"
         id="tspan2989-1-1"
         x="368.68311"
         y="440.32797">Mercredi</tspan></text>
    <text
       xml:space="preserve"
       style="font-size:26.79023743px;font-style:normal;font-variant:normal;font-weight:normal;font-stretch:normal;text-align:start;line-height:125%;letter-spacing:0px;word-spacing:0px;writing-mode:lr-tb;text-anchor:start;fill:#000000;fill-opacity:1;stroke:none;font-family:Comic Sans MS;-inkscape-font-specification:Comic Sans MS"
       x="546.77014"
       y="440.32797"
       id="text2987-7-7-3"
       sodipodi:linespacing="125%"><tspan
         sodipodi:role="line"
         x="546.77014"
         y="440.32797"
         id="tspan4111">Jeudi</tspan></text>
    <text
       xml:space="preserve"
       style="font-size:26.79023743px;font-style:normal;font-variant:normal;font-weight:normal;font-stretch:normal;text-align:start;line-height:125%;letter-spacing:0px;word-spacing:0px;writing-mode:lr-tb;text-anchor:start;fill:#000000;fill-opacity:1;stroke:none;font-family:Comic Sans MS;-inkscape-font-specification:Comic Sans MS"
       x="692.16736"
       y="440.08597"
       id="text2987-7-7-3-9"
       sodipodi:linespacing="125%"><tspan
         sodipodi:role="line"
         x="692.16736"
         y="440.08597"
         id="tspan4111-8">Vendredi</tspan></text>
    <rect
       style="fill:none;stroke:#000000;stroke-width:0.86759943;stroke-miterlimit:4;stroke-opacity:1;stroke-dasharray:1.73519887, 5.20559662;stroke-dashoffset:0"
       id="rect4150"
       width="820.32373"
       height="519.51129"
       x="16.926733"
       y="366.81433" />
    <path
       style="fill:none;stroke:#000000;stroke-width:0.83719492;stroke-linecap:butt;stroke-linejoin:miter;stroke-miterlimit:4;stroke-opacity:1;stroke-dasharray:1.67438981, 5.02316944;stroke-dashoffset:0"
       d="m 182.68286,401.74254 0,484.58298"
       id="path4152"
       inkscape:connector-curvature="0" />
    <path
       style="fill:none;stroke:#000000;stroke-width:0.8335374;stroke-linecap:butt;stroke-linejoin:miter;stroke-miterlimit:4;stroke-opacity:1;stroke-dasharray:1.66707474, 5.00122422;stroke-dashoffset:0"
       d="m 336.70972,404.50276 0,480.35812"
       id="path4152-7"
       inkscape:connector-curvature="0" />
    <path
       style="fill:none;stroke:#000000;stroke-width:0.8335374;stroke-linecap:butt;stroke-linejoin:miter;stroke-miterlimit:4;stroke-opacity:1;stroke-dasharray:1.66707474, 5.00122422;stroke-dashoffset:0"
       d="m 514.98983,405.16596 0,480.35814"
       id="path4152-7-9"
       inkscape:connector-curvature="0" />
    <path
       style="fill:none;stroke:#000000;stroke-width:0.8335374;stroke-linecap:butt;stroke-linejoin:miter;stroke-miterlimit:4;stroke-opacity:1;stroke-dasharray:1.66707474, 5.00122422;stroke-dashoffset:0"
       d="m 657.72096,402.59916 0,480.35812"
       id="path4152-7-3"
       inkscape:connector-curvature="0" />
    <path
       style="fill:none;stroke:#000000;stroke-width:0.83719492px;stroke-linecap:butt;stroke-linejoin:miter;stroke-opacity:1"
       d="m 16.926733,516.75701 164.910437,0.84568"
       id="path4197"
       inkscape:connector-curvature="0" />
    <path
       style="fill:none;stroke:#000000;stroke-width:0.83719492px;stroke-linecap:butt;stroke-linejoin:miter;stroke-opacity:1"
       d="m 16.081039,576.80131 166.601821,0"
       id="path4199"
       inkscape:connector-curvature="0" />
    <path
       style="fill:none;stroke:#000000;stroke-width:0.83719492px;stroke-linecap:butt;stroke-linejoin:miter;stroke-opacity:1"
       d="m 182.68286,613.16618 474.43466,0"
       id="path4201"
       inkscape:connector-curvature="0" />
    <path
       style="fill:none;stroke:#000000;stroke-width:0.83719492px;stroke-linecap:butt;stroke-linejoin:miter;stroke-opacity:1"
       d="m 181.83717,642.74849 476.12604,1.69139"
       id="path4203"
       inkscape:connector-curvature="0" />
    <path
       style="fill:none;stroke:#000000;stroke-width:0.83719492px;stroke-linecap:butt;stroke-linejoin:miter;stroke-opacity:1"
       d="m 657.96321,668.98203 179.28725,0.84568"
       id="path4205"
       inkscape:connector-curvature="0" />
    <path
       style="fill:none;stroke:#000000;stroke-width:0.83719492px;stroke-linecap:butt;stroke-linejoin:miter;stroke-opacity:1"
       d="m 656.27182,728.18064 179.28726,0.8457"
       id="path4207"
       inkscape:connector-curvature="0" />
    <path
       style="fill:none;stroke:#000000;stroke-width:0.83719492px;stroke-linecap:butt;stroke-linejoin:miter;stroke-opacity:1"
       d="m 657.11752,788.22496 179.28725,1.69139"
       id="path4209"
       inkscape:connector-curvature="0" />
    <path
       style="fill:none;stroke:#000000;stroke-width:0.83719492;stroke-linecap:butt;stroke-linejoin:miter;stroke-miterlimit:4;stroke-opacity:1;stroke-dasharray:1.67438981, 5.02316944;stroke-dashoffset:0"
       d="m 16.081039,449.10144 820.323731,-0.8457"
       id="path4211"
       inkscape:connector-curvature="0" />
    <text
       xml:space="preserve"
       style="font-size:26.79023743px;font-style:normal;font-variant:normal;font-weight:normal;font-stretch:normal;text-align:start;line-height:125%;letter-spacing:0px;word-spacing:0px;writing-mode:lr-tb;text-anchor:start;fill:#000000;fill-opacity:1;stroke:none;font-family:Comic Sans MS;-inkscape-font-specification:Comic Sans MS"
       x="26.6085"
       y="391.99878"
       id="text2987-2"
       sodipodi:linespacing="125%"><tspan
         sodipodi:role="line"
         id="tspan2989-5"
         x="26.6085"
         y="391.99878">Rituels du sprint</tspan></text>
    <path
       style="fill:none;stroke:#000000;stroke-width:0.83719492;stroke-linecap:butt;stroke-linejoin:miter;stroke-miterlimit:4;stroke-opacity:1;stroke-dasharray:1.67438981, 5.02316944;stroke-dashoffset:0"
       d="m 18.064121,402.78116 820.323729,-0.8457"
       id="path4211-1"
       inkscape:connector-curvature="0" />
    <path
       style="fill:none;stroke:#ee0000;stroke-width:2;stroke-linecap:butt;stroke-linejoin:miter;stroke-miterlimit:4;stroke-opacity:1;stroke-dasharray:none"
       d="m 46.609949,580.59857 c 0.67343,0.16836 1.34687,0.67344 2.0203,0.50508 1.46089,-0.36522 2.67972,-1.37568 4.04061,-2.02031 1.83846,-0.87085 3.69689,-1.69918 5.55584,-2.52538 7.13891,-3.17285 10.03588,-4.5238 17.67767,-7.07107 5.78097,-1.92699 13.74814,-4.06838 19.69798,-5.55584 2.852471,-0.71311 5.762631,-1.20053 8.586291,-2.0203 2.40359,-0.69782 4.71619,-1.67763 7.07107,-2.52538 6.44535,-2.32033 3.8918,-1.18829 8.5863,-3.53554 0.67343,-0.33671 1.39383,-0.5925 2.0203,-1.01015 0.19811,-0.13207 0.33672,-0.33672 0.50508,-0.50508 0.16836,-0.16835 0.29212,-0.39859 0.50508,-0.50507 0.67343,-0.33672 0.50507,0.50507 0.50507,-0.50508"
       id="path3948"
       inkscape:connector-curvature="0" />
    <text
       xml:space="preserve"
       style="font-size:23.44145775px;font-style:normal;font-variant:normal;font-weight:normal;font-stretch:normal;text-align:start;line-height:125%;letter-spacing:0px;word-spacing:0px;writing-mode:lr-tb;text-anchor:start;fill:#ff0000;fill-opacity:1;stroke:none;font-family:Comic Sans MS;-inkscape-font-specification:Comic Sans MS"
       x="86.954086"
       y="541.03638"
       id="text3933-8"
       sodipodi:linespacing="125%"><tspan
         sodipodi:role="line"
         x="86.954086"
         y="541.03638"
         id="tspan3937-5">Planning</tspan></text>
    <path
       style="fill:none;stroke:#e70000;stroke-width:2;stroke-linecap:butt;stroke-linejoin:miter;stroke-opacity:1;stroke-miterlimit:4;stroke-dasharray:none"
       d="m 108.57143,26.09319 c 1.90476,-0.47619 5.23809,-3.333333 5.71428,-1.428571 0.4762,1.904762 -7.67766,1.428571 -5.71428,1.428571 16.02319,0 3.14612,-0.144486 8.57143,-2.857143 0.43476,-0.217381 3.64234,0 4.28571,0 3.80953,0 7.61905,0 11.42857,0 0.64337,0 3.85095,0.217382 4.28572,0 0.60234,-0.301169 0.82623,-1.127402 1.42857,-1.428571 0.88487,-0.442438 5.2916,0.422688 5.71428,0 0.33672,-0.336718 -0.33671,-1.091854 0,-1.428571 0.67344,-0.673435 2.18371,0.673435 2.85715,0 0.33672,-0.336718 -0.33672,-1.091854 0,-1.428572 0.71428,-0.714286 3.57143,0.714286 4.28571,0 0.33672,-0.336717 -0.33672,-1.091854 0,-1.428571 0.11471,-0.114712 6.01841,0 7.14286,0 0.47619,0 1.09185,0.336717 1.42857,0 0.33672,-0.336718 -0.33672,-1.091854 0,-1.428572 0.33672,-0.336717 0.95238,0 1.42857,0 2.38095,0 4.76191,0 7.14286,0 0.47619,0 0.95238,0 1.42857,0 0.47619,0 1.00265,0.212959 1.42857,0 0.60234,-0.301169 0.82623,-1.127402 1.42857,-1.428571 0.37563,-0.187816 4.96726,0 5.71429,0 4.28571,0 8.57143,0 12.85714,0 10.95238,0 21.90476,0 32.85715,0"
       id="path4101"
       inkscape:connector-curvature="0"
       transform="translate(15.662442,366.38053)" />
    <text
       xml:space="preserve"
       style="font-size:26.79023743000000124px;font-style:normal;font-variant:normal;font-weight:normal;font-stretch:normal;text-align:start;line-height:125%;letter-spacing:0px;word-spacing:0px;writing-mode:lr-tb;text-anchor:start;fill:#ff0000;fill-opacity:1;stroke:none;font-family:Comic Sans MS;-inkscape-font-specification:Comic Sans MS"
       x="246.24925"
       y="392.76886"
       id="text2987-2-1"
       sodipodi:linespacing="125%"><tspan
         sodipodi:role="line"
         id="tspan2989-5-1"
         x="246.24925"
         y="392.76886">de l'itération</tspan></text>
    <path
       style="fill:none;stroke:#0000de;stroke-width:2.20000005;stroke-linecap:butt;stroke-linejoin:miter;stroke-miterlimit:4;stroke-opacity:1;stroke-dasharray:none"
       d="m 285.19326,390.035 c 0.95238,-0.2381 1.88145,-0.60588 2.85714,-0.71429 1.1832,-0.13146 2.38095,0 3.57143,0 16.73107,0 -0.0593,0 7.85714,0 1.66667,0 3.34621,0.20673 5,0 2.17818,-0.27227 4.2504,-1.1563 6.42857,-1.42857 1.6538,-0.20672 3.33334,0 5,0 1.42858,0 2.85715,0 4.28572,0 6.90476,0 13.80952,0 20.71428,0 8.81285,0 -0.46961,0.11864 12.85715,-0.71428 0.24903,-0.0156 5.66588,0.0161 5.71428,0 0.63888,-0.21296 0.82624,-1.12741 1.42857,-1.42858 3.95698,-1.97849 1.70481,0.28809 5.71429,-0.71428 1.033,-0.25825 1.82414,-1.17032 2.85714,-1.42857 0.64687,-0.16172 5.28087,0 6.42857,0 0.47619,0 0.97682,0.15058 1.42858,0 0.31943,-0.10648 0.41311,-0.5637 0.71428,-0.71429 0.0374,-0.0187 2.10549,-0.0187 2.14286,0 0.30117,0.15059 0.39485,0.60781 0.71428,0.71429 0.45176,0.15058 0.95239,0 1.42858,0 0.23809,0 0.71428,0.23809 0.71428,0 0,-0.33672 -0.71428,-0.37757 -0.71428,-0.71429 0,-0.23809 0.47619,0 0.71428,0 2.29925,0 -1.21936,0.16836 1.42857,-0.71428 0.45176,-0.15059 0.95238,0 1.42857,0 0.47619,0 0.95239,0 1.42858,0 0.23809,0 0.47619,0 0.71428,0 0.2381,0 0.50133,-0.10648 0.71429,0 0.30117,0.15058 0.41311,0.5637 0.71428,0.71428 0.10268,0.0513 3.53899,0.0108 3.57143,0 0.31944,-0.10648 0.41312,-0.5637 0.71429,-0.71428 0.44894,-0.22448 2.4082,0.22447 2.85714,0 0.30117,-0.15059 0.41312,-0.56371 0.71429,-0.71429 0.42591,-0.21296 1.00265,0.21296 1.42857,0 0.30117,-0.15059 0.41311,-0.5637 0.71428,-0.71429 0.28321,-0.1416 1.99683,0.14603 2.14286,0 0.16836,-0.16836 -0.16836,-0.54592 0,-0.71428 0.33672,-0.33672 1.00265,0.21296 1.42857,0 0.30117,-0.15059 0.41312,-0.5637 0.71429,-0.71429 0.28321,-0.1416 1.99683,0.14603 2.14285,0 0.16836,-0.16836 -0.16835,-0.54592 0,-0.71428 0.70463,-0.70463 1.42858,1.46362 1.42858,-0.71429"
       id="path3062"
       inkscape:connector-curvature="0" />
    <text
       sodipodi:linespacing="125%"
       id="text3853"
       y="392.76886"
       x="426.24927"
       style="font-size:26.79023743000000124px;font-style:normal;font-variant:normal;font-weight:normal;font-stretch:normal;text-align:start;line-height:125%;letter-spacing:0px;word-spacing:0px;writing-mode:lr-tb;text-anchor:start;fill:#0000ff;fill-opacity:1;stroke:none;font-family:Comic Sans MS;-inkscape-font-specification:Comic Sans MS"
       xml:space="preserve"><tspan
         y="392.76886"
         x="426.24927"
         id="tspan3855"
         sodipodi:role="line">la semaine</tspan></text>
    <text
       sodipodi:linespacing="125%"
       id="text3853-4"
       y="662.29089"
       x="836.43951"
       style="font-size:16.75351143px;font-style:normal;font-variant:normal;font-weight:normal;font-stretch:normal;text-align:start;line-height:125%;letter-spacing:0px;word-spacing:0px;writing-mode:lr-tb;text-anchor:start;fill:#0000ff;fill-opacity:1;stroke:none;font-family:Comic Sans MS;-inkscape-font-specification:Comic Sans MS"
       xml:space="preserve"><tspan
         y="662.29089"
         x="836.43951"
         sodipodi:role="line"
         id="tspan3898"
         style="font-weight:bold;text-align:end;text-anchor:end">point de visibilité des</tspan><tspan
         y="683.23279"
         x="836.43951"
         sodipodi:role="line"
         id="tspan3900"
         style="font-weight:bold;text-align:end;text-anchor:end">développements</tspan><tspan
         y="704.17468"
         x="836.43951"
         sodipodi:role="line"
         style="font-weight:bold;text-align:end;text-anchor:end"
         id="tspan3926">en cours</tspan></text>
    <path
       style="fill:none;stroke:#0000de;stroke-width:1.61698103;stroke-linecap:butt;stroke-linejoin:miter;stroke-miterlimit:4;stroke-opacity:1;stroke-dasharray:none"
       d="m 668.83007,717.83087 c 0.51448,-0.2381 1.01638,-0.60588 1.54346,-0.71429 0.63918,-0.13146 1.28621,0 1.92933,0 9.03833,0 -0.0321,0 4.24452,0 0.90036,0 1.80767,0.20673 2.70107,0 1.17667,-0.27227 2.29612,-1.1563 3.47278,-1.42857 0.89341,-0.20672 1.80072,0 2.70107,0 0.77174,0 1.54347,0 2.3152,0 3.73004,0 7.46007,0 11.19011,0 4.76081,0 -0.25369,0.11864 6.94559,-0.71428 0.13453,-0.0156 3.06078,0.0161 3.08692,0 0.34513,-0.21296 0.44635,-1.12741 0.77173,-1.42858 2.13761,-1.97849 0.92096,0.28809 3.08693,-0.71428 0.55805,-0.25825 0.98543,-1.17032 1.54346,-1.42857 0.34945,-0.16172 2.8528,0 3.47279,0 0.25725,0 0.5277,0.15058 0.77174,0 0.17256,-0.10648 0.22317,-0.5637 0.38587,-0.71429 0.0202,-0.0187 1.1374,-0.0187 1.15759,0 0.1627,0.15059 0.21331,0.60781 0.38587,0.71429 0.24404,0.15058 0.51449,0 0.77173,0 0.12862,0 0.38587,0.23809 0.38587,0 0,-0.33672 -0.38587,-0.37757 -0.38587,-0.71429 0,-0.2381 0.25724,0 0.38587,0 1.24208,0 -0.65872,0.16836 0.77173,-0.71428 0.24404,-0.15059 0.51448,0 0.77173,0 0.25724,0 0.51449,0 0.77173,0 0.12863,0 0.25725,0 0.38587,0 0.12862,0 0.27082,-0.10649 0.38587,0 0.16269,0.15058 0.22317,0.5637 0.38586,0.71428 0.0554,0.0513 1.91181,0.0108 1.92933,0 0.17257,-0.10648 0.22317,-0.5637 0.38587,-0.71428 0.24252,-0.22448 1.30094,0.22447 1.54346,0 0.1627,-0.15059 0.22317,-0.56371 0.38587,-0.71429 0.23008,-0.21296 0.54164,0.21296 0.77173,0 0.16269,-0.15059 0.22317,-0.5637 0.38586,-0.71429 0.153,-0.1416 1.07871,0.14603 1.1576,0 0.091,-0.16836 -0.0909,-0.54592 0,-0.71428 0.1819,-0.33672 0.54165,0.21296 0.77173,0 0.1627,-0.15059 0.22318,-0.5637 0.38587,-0.71429 0.153,-0.1416 1.07871,0.14603 1.15759,0 0.091,-0.16836 -0.0909,-0.54593 0,-0.71428 0.38065,-0.70463 0.77174,1.46362 0.77174,-0.71429"
       id="path3062-2"
       inkscape:connector-curvature="0" />
  </g>
</svg>
