<?xml version="1.0" encoding="UTF-8" standalone="no"?>
<!-- Created with Inkscape (http://www.inkscape.org/) -->

<svg
   xmlns:dc="http://purl.org/dc/elements/1.1/"
   xmlns:cc="http://creativecommons.org/ns#"
   xmlns:rdf="http://www.w3.org/1999/02/22-rdf-syntax-ns#"
   xmlns:svg="http://www.w3.org/2000/svg"
   xmlns="http://www.w3.org/2000/svg"
   xmlns:sodipodi="http://sodipodi.sourceforge.net/DTD/sodipodi-0.dtd"
   xmlns:inkscape="http://www.inkscape.org/namespaces/inkscape"
   width="587.33252"
   height="397.11383"
   id="svg2"
   version="1.1"
   inkscape:version="0.48.3.1 r9886"
   sodipodi:docname="generalisation.svg">
  <defs
     id="defs4" />
  <sodipodi:namedview
     id="base"
     pagecolor="#ffffff"
     bordercolor="#666666"
     borderopacity="1.0"
     inkscape:pageopacity="0.0"
     inkscape:pageshadow="2"
     inkscape:zoom="1.4"
     inkscape:cx="258.49357"
     inkscape:cy="185.11321"
     inkscape:document-units="px"
     inkscape:current-layer="layer1"
     showgrid="false"
     inkscape:window-width="1301"
     inkscape:window-height="744"
     inkscape:window-x="65"
     inkscape:window-y="24"
     inkscape:window-maximized="1"
     fit-margin-top="0"
     fit-margin-left="0"
     fit-margin-right="0"
     fit-margin-bottom="0" />
  <metadata
     id="metadata7">
    <rdf:RDF>
      <cc:Work
         rdf:about="">
        <dc:format>image/svg+xml</dc:format>
        <dc:type
           rdf:resource="http://purl.org/dc/dcmitype/StillImage" />
        <dc:title></dc:title>
      </cc:Work>
    </rdf:RDF>
  </metadata>
  <g
     inkscape:label="Calque 1"
     inkscape:groupmode="layer"
     id="layer1"
     transform="translate(-79.654015,-320.36158)">
    <path
       style="fill:none;stroke:#000000;stroke-width:1px;stroke-linecap:butt;stroke-linejoin:miter;stroke-opacity:1"
       d="m 137.85714,562.36218 c -2.04353,-0.81692 -3.64814,-0.71428 -5.71428,-0.71428 -0.2381,0 -0.50133,-0.10648 -0.71429,0 -2.97268,1.48634 0.7636,-0.0493 -0.71428,1.42857 -0.16836,0.16836 -0.54593,-0.16836 -0.71429,0 -0.33672,0.33672 0.21296,1.00265 0,1.42857 -1.08913,2.17826 -0.56626,-1.30639 -1.42857,2.14286 -0.11549,0.46197 0.15058,0.97681 0,1.42857 -0.21296,0.63887 -1.1274,0.82623 -1.42857,1.42857 -0.10648,0.21296 0.0753,0.48841 0,0.71428 -0.16836,0.50508 -0.54593,0.9235 -0.71429,1.42858 -0.0753,0.22587 0,0.47619 0,0.71428 0,1.20959 0.17703,3.22355 0,4.28572 -0.12378,0.74268 -0.5905,1.40017 -0.71428,2.14285 -0.11743,0.70457 0,1.42857 0,2.14286 0,2.38095 0,4.76191 0,7.14286 0,2.85714 0,5.71428 0,8.57143 0,0.47619 0,0.95238 0,1.42857 0,0.71428 -0.26528,1.47966 0,2.14285 0.2501,0.62527 0.95238,0.95239 1.42857,1.42858 0.23809,0.23809 0.47619,0.47619 0.71428,0.71428 0.2381,0.2381 0.41312,0.5637 0.71429,0.71429 0.38097,0.19048 1.0476,-0.19049 1.42857,0 0.30117,0.15058 0.39485,0.6078 0.71429,0.71428 0.64285,0.21429 1.5,-0.21428 2.14285,0 0.63061,0.21021 3.7205,1.76605 4.28572,2.14286 0.28016,0.18678 0.41311,0.5637 0.71428,0.71429 0.21296,0.10648 0.47619,0 0.71429,0 0.47619,0.23809 0.98559,0.41896 1.42857,0.71428 0.28017,0.18678 0.47619,0.47619 0.71429,0.71429 0.47619,0.47619 1.02451,0.88982 1.42857,1.42857 0.31944,0.42592 0.39484,1.00265 0.71428,1.42857 0.40406,0.53875 1.02451,0.88982 1.42857,1.42857 0.31944,0.42592 0.47619,0.95238 0.71429,1.42857 0.47619,0.95238 1.03312,1.86851 1.42857,2.85715 0.63068,1.57669 0.7979,2.70902 1.42857,4.28571 0.39546,0.98864 1.09186,1.84699 1.42857,2.85714 0.0753,0.22588 0,0.47619 0,0.71429 0.2381,0.23809 0.56371,0.41312 0.71429,0.71429 0.10648,0.21295 -0.10648,0.50132 0,0.71428 0.40944,0.81887 1.49037,0.99358 2.14286,1.42857 0.28016,0.18678 0.39484,0.60781 0.71428,0.71429 0.45176,0.15058 0.95238,0 1.42857,0 0.2381,0 0.50133,-0.10648 0.71429,0 0.30117,0.15058 0.39485,0.6078 0.71429,0.71428 0.67763,0.22588 1.42857,0 2.14285,0 1.42857,0 2.85715,0 4.28572,0 3.33333,0 6.66666,0 10,0 1.19047,0 2.38095,0 3.57143,0 0.47619,0 0.96659,-0.11549 1.42857,0 0.5165,0.12913 0.92349,0.54593 1.42857,0.71429 0.45175,0.15058 1.00265,-0.21296 1.42857,0 0.30117,0.15058 0.39485,0.60781 0.71429,0.71429 0.45175,0.15058 0.95238,0 1.42857,0 0.23809,0 0.50132,-0.10648 0.71428,0 0.30117,0.15058 0.41312,0.5637 0.71429,0.71428 0.21738,0.10869 1.82117,0 2.14286,0 1.42857,0 2.85714,0 4.28571,0 3.80952,0 7.61905,0 11.42857,0 0.40982,0 3.50873,0.0627 3.57143,0 0.33672,-0.33672 -0.11549,-0.9666 0,-1.42857 0.12913,-0.5165 0.51656,-0.93425 0.71429,-1.42857 0.68315,-1.70788 0.97703,-3.19385 1.42857,-5 0.23809,-0.95238 0.59252,-1.88303 0.71428,-2.85714 0.11813,-0.94503 -0.13468,-1.91434 0,-2.85715 0.10648,-0.74535 0.59051,-1.40018 0.71429,-2.14285 0.11743,-0.70457 -0.10102,-1.43576 0,-2.14286 0.13883,-0.97183 0.57545,-1.88532 0.71428,-2.85714 0.10102,-0.70711 -0.11742,-1.4383 0,-2.14286 0.12378,-0.74268 0.59051,-1.40018 0.71429,-2.14286 0.23486,-1.40913 -0.28017,-2.88488 0,-4.28571 0.10441,-0.52206 0.58516,-0.91207 0.71429,-1.42858 0.11549,-0.46197 0,-0.95238 0,-1.42857 0.23809,-0.47619 0.58516,-0.91207 0.71428,-1.42857 0.11549,-0.46197 -0.0934,-0.96163 0,-1.42857 0.14766,-0.7383 0.56663,-1.40455 0.71429,-2.14286 0.0934,-0.46694 -0.1155,-0.9666 0,-1.42857 0.25825,-1.033 1.21975,-1.81302 1.42857,-2.85714 0,-5.44903 -0.31944,0.56347 0.71428,-3.57143 0.1155,-0.46197 -0.15058,-0.97682 0,-1.42857 0.21296,-0.63888 1.21562,-0.7897 1.42858,-1.42857 0.15058,-0.45176 0,-0.95238 0,-1.42857 0,-0.2381 -0.10648,-0.50133 0,-0.71429 0.31655,-0.6331 1.70937,-1.49263 2.14285,-2.14286 0.59064,-0.88596 0.83793,-1.97118 1.42857,-2.85714 0.18678,-0.28017 0.47619,-0.47619 0.71429,-0.71429 0.47619,-0.47619 0.95238,-0.95238 1.42857,-1.42857 0.95238,-0.95238 1.90476,-1.90476 2.85714,-2.85714 0.47619,-0.47619 0.95239,-0.95238 1.42858,-1.42857 0.23809,-0.2381 0.5637,-0.41312 0.71428,-0.71429 0.10648,-0.21296 -0.10648,-0.50132 0,-0.71428 0.15059,-0.30117 0.5637,-0.41312 0.71429,-0.71429 0.10648,-0.21296 -0.16836,-0.54592 0,-0.71428 0.16836,-0.16836 0.54592,0.16836 0.71428,0 0.16836,-0.16836 0,-0.47619 0,-0.71429 0,-2.38095 0,-4.7619 0,-7.14286 0,-1.66666 0,-3.33333 0,-5 0,-1.73393 0.24161,-3.40684 -0.71428,-5 -0.34648,-0.57746 -1.02451,-0.88982 -1.42857,-1.42857 -0.31944,-0.42592 -0.39485,-1.00265 -0.71429,-1.42857 -0.40406,-0.53875 -0.95238,-0.95238 -1.42857,-1.42857 -0.2381,-0.2381 -0.43412,-0.52751 -0.71429,-0.71429 -0.44298,-0.29532 -1.05211,-0.33782 -1.42857,-0.71428 -0.37646,-0.37646 -0.2713,-1.13325 -0.71428,-1.42857 -0.39622,-0.26415 -0.97682,0.15058 -1.42858,0 -0.38659,-0.12887 -1.67359,-1.83002 -2.14285,-2.14286 -0.44298,-0.29532 -1.05211,-0.33782 -1.42857,-0.71429 -0.37647,-0.37646 -0.33783,-1.05211 -0.71429,-1.42857 -1.73486,-1.73486 -1.04887,0.21241 -2.14286,-1.42857 -0.29532,-0.44298 -0.33782,-1.05211 -0.71428,-1.42857 -2.78767,-2.78767 -0.38361,0.16534 -2.14286,-0.71429 -0.60234,-0.30117 -0.86824,-1.05501 -1.42857,-1.42857 -3.60843,-2.40562 -0.0165,-0.006 -2.14286,-0.71428 -0.50507,-0.16836 -0.95238,-0.47619 -1.42857,-0.71429 -0.47619,-0.23809 -1.05211,-0.33782 -1.42857,-0.71429 -0.37646,-0.37646 -0.33783,-1.0521 -0.71429,-1.42857 -0.37646,-0.37646 -0.98559,-0.41896 -1.42857,-0.71428 -0.28016,-0.18678 -0.43412,-0.52751 -0.71428,-0.71429 -0.44299,-0.29532 -1.13325,-0.2713 -1.42858,-0.71428 -0.26414,-0.39622 0.15059,-0.97682 0,-1.42858 -0.21192,-0.63577 -1.93093,-1.50708 -2.14285,-2.14285 -0.15059,-0.45176 0.15058,-0.97682 0,-1.42857 -0.21296,-0.63888 -1.05502,-0.86824 -1.42857,-1.42858 -0.29532,-0.44298 -0.41897,-0.98559 -0.71429,-1.42857 -0.23255,-0.34882 -2.50832,-2.62459 -2.85714,-2.85714 -0.44298,-0.29532 -0.9235,-0.54593 -1.42857,-0.71429 -0.47243,-0.15747 -3.58403,0 -4.28572,0 -2.14286,0 -4.28571,0 -6.42857,0 -0.61402,0 -5.2841,-0.14339 -5.71429,0 -0.81441,0.27148 -1.37502,1.04466 -2.14285,1.42858 -0.67344,0.33671 -1.42857,0.47619 -2.14286,0.71428 -0.71429,0.47619 -1.40673,0.9869 -2.14286,1.42857 -0.1237,0.0742 -2.83151,1.40295 -2.85714,1.42857 -0.37646,0.37647 -0.41896,0.9856 -0.71429,1.42858 -0.43348,0.65022 -1.8263,1.50975 -2.14285,2.14285 -0.10648,0.21296 0.0753,0.48841 0,0.71429 -0.2381,0.47619 -0.47619,0.95238 -0.71429,1.42857 0,0.2381 0.0753,0.48841 0,0.71429 -0.33672,1.01015 -0.95238,1.90476 -1.42857,2.85714 -0.2381,0.47619 -0.58516,0.91207 -0.71429,1.42857 -0.11549,0.46197 0.15059,0.97682 0,1.42857 -0.10647,0.31944 -0.5275,0.43412 -0.71428,0.71429 -0.29532,0.44298 -0.47619,0.95238 -0.71429,1.42857 -0.23809,0.47619 -0.54592,0.92349 -0.71428,1.42857 -0.0753,0.22588 0.10648,0.50133 0,0.71429 -0.15059,0.30117 -0.5637,0.41311 -0.71429,0.71428 -0.10648,0.21296 0.10648,0.50133 0,0.71429 -0.47481,0.94963 -0.95375,0.47894 -1.42857,1.42857 -0.10648,0.21296 0.10648,0.50133 0,0.71428 -0.30117,0.60234 -1.1274,0.82624 -1.42857,1.42858 -0.10648,0.21296 0,0.47619 0,0.71428 -0.2381,0.47619 -0.41897,0.98559 -0.71429,1.42857 -0.37355,0.56034 -0.95238,0.95238 -1.42857,1.42857 -0.71428,0.71429 -1.42857,1.42858 -2.14286,2.14286 -0.4201,0.4201 -2.52637,2.69176 -2.85714,2.85714 -0.21296,0.10648 -0.50133,-0.10647 -0.71428,0 -0.30117,0.15059 -0.41312,0.56371 -0.71429,0.71429 -0.21296,0.10648 -0.54593,-0.16836 -0.71429,0 -0.16835,0.16836 0.16836,0.54593 0,0.71429 -0.0324,0.0324 -3.23464,0 -3.57142,0 -0.32169,0 -1.92548,0.10869 -2.14286,0 -1.71043,-0.85522 0.45014,-1.42858 -1.42857,-1.42858 -0.2381,0 -0.54593,-0.16835 -0.71429,0 -0.16836,0.16836 0,0.4762 0,0.71429 0,0.47619 0,0.95238 0,1.42857 0,1.42857 0,2.85714 0,4.28572 0,0.46936 -0.13433,1.73985 0,2.14285 0.40546,1.21639 1.42857,2.28925 1.42857,3.57143 0,1.28218 -0.23809,4.04762 -1.42857,3.57143 -1.19047,-0.47619 0.95238,-2.38095 1.42857,-3.57143 z"
       id="path2985"
       inkscape:connector-curvature="0" />
    <text
       xml:space="preserve"
       style="font-size:32px;font-style:normal;font-variant:normal;font-weight:bold;font-stretch:normal;text-align:start;line-height:125%;letter-spacing:0px;word-spacing:0px;writing-mode:lr-tb;text-anchor:start;fill:#d40000;fill-opacity:1;stroke:none;font-family:Monospace;-inkscape-font-specification:Monospace Bold"
       x="-181.12946"
       y="595.29333"
       id="text2987"
       sodipodi:linespacing="125%"
       transform="matrix(0.86544131,-0.50101032,0.50101032,0.86544131,0,0)"><tspan
         sodipodi:role="line"
         id="tspan2989"
         x="-181.12946"
         y="595.29333">AGILE</tspan></text>
    <path
       style="fill:none;stroke:#000000;stroke-width:1px;stroke-linecap:butt;stroke-linejoin:miter;stroke-opacity:1"
       d="m 322.14286,515.21932 c -3.80953,0 -7.61905,0 -11.42857,0 -0.39869,0 -3.24446,-0.10899 -3.57143,0 -0.31944,0.10648 -0.43412,0.52751 -0.71429,0.71429 -0.44298,0.29532 -1.05211,0.33782 -1.42857,0.71429 -0.72275,0.72274 -1.01015,2.87406 -1.42857,3.57142 -0.34648,0.57747 -1.00788,0.90271 -1.42857,1.42858 -2.11182,2.63977 -0.92416,1.44207 -2.14286,4.28571 -0.41944,0.9787 -0.95238,1.90476 -1.42857,2.85714 -0.95238,1.90477 -1.90476,3.80953 -2.85714,5.71429 -1.05525,2.1105 -2.17314,4.14854 -2.85715,6.42857 -1.53022,5.10075 -0.14312,2.00244 -0.71428,7.14286 -0.14949,1.34534 -0.97709,3.64555 -1.42857,5 -0.2381,0.71428 -0.59051,1.40018 -0.71429,2.14285 -0.11743,0.70457 0.11743,1.4383 0,2.14286 -0.24756,1.48536 -1.21561,2.795 -1.42857,4.28572 -0.13469,0.94281 0.11813,1.91211 0,2.85714 -0.12177,0.97411 -0.60588,1.88145 -0.71429,2.85714 -0.13146,1.1832 0,2.38095 0,3.57143 0,1.90476 0,3.80952 0,5.71429 0,0.95238 0.13469,1.91433 0,2.85714 -0.10648,0.74536 -0.5905,1.40018 -0.71428,2.14286 -0.11743,0.70456 0,1.42857 0,2.14285 0,0.71429 0,1.42857 0,2.14286 0,2.38095 0,4.76191 0,7.14286 0,1.41604 0,2.86967 0,4.28571 0,0.47619 0,0.95238 0,1.42857 0,0.47619 -0.1155,0.9666 0,1.42857 0.25825,1.03301 1.09185,1.847 1.42857,2.85715 0.0753,0.22587 -0.10648,0.50132 0,0.71428 0.15058,0.30117 0.47619,0.47619 0.71428,0.71429 0.4762,0.47619 0.95239,0.95238 1.42858,1.42857 0.23809,0.2381 0.5275,0.43412 0.71428,0.71429 0.29532,0.44298 0.41897,0.98559 0.71429,1.42857 0.18677,0.28016 0.52751,0.43412 0.71428,0.71428 0.29532,0.44298 0.41897,0.98559 0.71429,1.42858 0.20184,0.30275 1.84732,1.99508 2.14286,2.14285 0.21295,0.10648 0.54592,-0.16836 0.71428,0 0.16836,0.16836 -0.16836,0.54593 0,0.71429 0.16836,0.16836 0.54593,-0.16836 0.71429,0 0.16836,0.16836 -0.16836,0.54592 0,0.71428 0.33671,0.33672 1.00265,-0.21296 1.42857,0 0.30117,0.15059 0.41312,0.5637 0.71428,0.71429 0.1601,0.0801 2.68741,0 2.85715,0 1.66666,0 3.33333,0 5,0 8.57143,0 17.14285,0 25.71428,0 4.76191,0 9.52381,0 14.28572,0 2.38095,0 4.7619,0 7.14285,0 0.61899,0 2.44338,0.13792 2.85715,0 2.85714,-0.95238 0.23809,-0.2381 2.14285,-2.14286 0.37647,-0.37646 1.05211,-0.33782 1.42858,-0.71428 1.31637,-1.31638 1.29738,-2.16232 2.14285,-3.57143 1.58101,-2.63502 1.66876,-1.68129 2.14286,-5 0.10102,-0.70711 -0.11743,-1.43829 0,-2.14286 1.04502,-6.27012 0.26275,1.09185 1.42857,-3.57143 0.11549,-0.46197 -0.11549,-0.9666 0,-1.42857 0.25825,-1.033 1.17032,-1.82414 1.42857,-2.85714 0.1155,-0.46197 0,-0.95238 0,-1.42857 0,-0.2381 -0.10648,-0.50133 0,-0.71429 0.15059,-0.30117 0.60781,-0.39485 0.71429,-0.71429 0.15058,-0.45175 -0.11549,-0.96659 0,-1.42857 0.12912,-0.5165 0.58516,-0.91207 0.71428,-1.42857 0.1155,-0.46197 -0.11549,-0.9666 0,-1.42857 0.12913,-0.5165 0.51656,-0.93425 0.71429,-1.42857 2.87608,-7.19019 -0.55771,1.51657 0.71429,-3.57143 0.12912,-0.5165 0.58516,-0.91207 0.71428,-1.42857 0.11549,-0.46197 0,-0.95238 0,-1.42857 0,-0.2381 -0.10648,-0.50133 0,-0.71429 0.15059,-0.30117 0.5637,-0.41311 0.71429,-0.71428 0.10648,-0.21296 -0.10648,-0.50133 0,-0.71429 0.31655,-0.6331 1.70937,-1.49263 2.14285,-2.14286 0.29533,-0.44298 0.33783,-1.05211 0.71429,-1.42857 0.37646,-0.37646 0.95238,-0.47619 1.42857,-0.71428 0.94659,-0.4733 1.91056,-0.95528 2.85714,-1.42858 0.4762,-0.23809 1.00266,-0.39484 1.42858,-0.71428 0.53874,-0.40406 0.88982,-1.02451 1.42857,-1.42857 0.85183,-0.63888 2.10422,-0.67565 2.85714,-1.42857 0.0458,-0.0458 1.33987,-2.7241 1.42857,-2.85715 0.37356,-0.56033 1.1274,-0.82623 1.42857,-1.42857 0.10648,-0.21296 0,-0.47619 0,-0.71428 0,-0.47619 0,-0.95238 0,-1.42858 0,-0.61898 0.13793,-2.44337 0,-2.85714 -0.75685,-2.27057 -1.77856,-1.77379 -2.85714,-3.57143 -0.38738,-0.64562 -0.37757,-1.46942 -0.71429,-2.14285 -0.15058,-0.30117 -0.47619,-0.47619 -0.71428,-0.71429 -0.47619,-0.47619 -1.00788,-0.90271 -1.42857,-1.42857 -0.53628,-0.67035 -0.9869,-1.40673 -1.42857,-2.14286 -0.27392,-0.45652 -0.44037,-0.97204 -0.71429,-1.42857 -0.88335,-1.47225 -2.08931,-2.75005 -2.85714,-4.28571 -0.33672,-0.67344 -0.47619,-1.42858 -0.71429,-2.14286 -0.47619,-0.71429 -0.98689,-1.40673 -1.42857,-2.14286 -0.0742,-0.1237 -1.40294,-2.83151 -1.42857,-2.85714 -0.37646,-0.37646 -0.98559,-0.41897 -1.42857,-0.71429 -0.56033,-0.37355 -0.82624,-1.1274 -1.42857,-1.42857 -0.42592,-0.21296 -1.09186,0.33672 -1.42858,0 -0.16835,-0.16836 0.21296,-0.6078 0,-0.71428 -0.42591,-0.21296 -0.97681,0.15058 -1.42857,0 -0.31944,-0.10648 -0.47619,-0.47619 -0.71428,-0.71429 -0.42011,-0.4201 -2.52637,-2.69176 -2.85715,-2.85714 -0.21295,-0.10648 -0.50132,0.10648 -0.71428,0 -0.30117,-0.15059 -0.39485,-0.60781 -0.71429,-0.71429 -0.45175,-0.15058 -0.97681,0.15059 -1.42857,0 -0.31944,-0.10648 -0.41311,-0.5637 -0.71428,-0.71428 -0.21296,-0.10648 -0.47619,0 -0.71429,0 -0.23809,-0.2381 -0.41312,-0.5637 -0.71429,-0.71429 -0.21295,-0.10648 -0.47619,0 -0.71428,0 -0.47619,-0.23809 -0.98559,-0.41896 -1.42857,-0.71429 -0.8405,-0.56033 -1.33474,-1.53676 -2.14286,-2.14285 -0.42592,-0.31944 -1.05211,-0.33783 -1.42857,-0.71429 -0.37646,-0.37646 -0.39485,-1.00265 -0.71429,-1.42857 -0.40406,-0.53875 -1.02451,-0.88982 -1.42857,-1.42857 -0.31944,-0.42592 -0.47619,-0.95238 -0.71428,-1.42857 -0.2381,-0.47619 -0.58516,-0.91207 -0.71429,-1.42857 -0.11549,-0.46198 0.15059,-0.97682 0,-1.42858 -0.21296,-0.63887 -1.1274,-0.82623 -1.42857,-1.42857 -0.21296,-0.42591 0.33672,-1.09185 0,-1.42857 -0.16836,-0.16836 -0.50133,0.10648 -0.71429,0 -0.30117,-0.15058 -0.47619,-0.47619 -0.71428,-0.71428 -0.91947,-0.91947 -1.55036,-1.70727 -2.85715,-2.14286 -0.22587,-0.0753 -0.4884,0.0753 -0.71428,0 -0.50508,-0.16836 -0.9235,-0.54593 -1.42857,-0.71429 -0.41377,-0.13792 -2.23816,0 -2.85715,0 -1.90476,0 -3.80952,0 -5.71428,0 -1.19048,0 -2.38095,0 -3.57143,0 -0.23809,0 -0.47619,0 -0.71429,0 -0.23809,0 -0.50132,-0.10648 -0.71428,0 -0.81887,0.40944 -0.99358,1.49037 -1.42857,2.14286 -0.18678,0.28017 -0.5637,0.41312 -0.71429,0.71429 -0.10648,0.21296 0.16836,0.54592 0,0.71428 -0.16836,0.16836 -0.54593,-0.16836 -0.71428,0 -0.16836,0.16836 0,0.47619 0,0.71429 -1.19048,0.71428 -2.38096,1.42857 -3.57143,2.14285 z"
       id="path3003"
       inkscape:connector-curvature="0" />
    <path
       style="fill:none;stroke:#000000;stroke-width:1px;stroke-linecap:butt;stroke-linejoin:miter;stroke-opacity:1"
       d="m 492.85714,514.50504 c -0.40868,0 -3.06148,0 -4.28571,0 -0.2381,0 -0.48841,-0.0753 -0.71429,0 -0.50507,0.16836 -0.93425,0.51656 -1.42857,0.71428 -0.69907,0.27963 -1.44378,0.43466 -2.14286,0.71429 -0.98863,0.39546 -1.8685,1.03312 -2.85714,1.42857 -0.69907,0.27963 -1.49723,0.32691 -2.14286,0.71429 -1.80503,1.80503 -0.82623,1.1274 -2.85714,2.14285 -4.04692,2.02346 1.0648,-0.26619 -2.85714,0.71429 -1.72762,0.43191 -1.6522,1.33956 -2.85714,2.14286 -2.13045,1.42029 -0.92621,-0.17427 -2.85715,2.14285 -0.69685,0.83622 -2.89666,3.81916 -3.57143,5 -1.27024,2.22293 -1.2751,3.10156 -2.85714,5 -0.64668,0.77603 -1.58252,1.30236 -2.14286,2.14286 -0.41764,0.62647 -0.29663,1.51639 -0.71428,2.14286 -0.56033,0.8405 -1.51182,1.35406 -2.14286,2.14286 -0.60057,0.75071 -1.18293,2.8345 -1.42857,3.57142 -0.7704,2.3112 -1.79678,4.72033 -2.14286,7.14286 -0.10101,0.70711 0,1.42857 0,2.14286 0,0.95238 0,1.90476 0,2.85714 0,3.80953 0,7.61905 0,11.42857 0,1.66667 0,3.33334 0,5 0,0.71429 0,1.42857 0,2.14286 0,0.47619 -0.17685,0.98644 0,1.42857 0.31883,0.79707 0.95238,1.42857 1.42857,2.14286 0.4762,0.71428 0.95239,1.42857 1.42858,2.14286 0.47619,0.71428 1.04465,1.37502 1.42857,2.14285 0.33672,0.67344 0.37757,1.46943 0.71428,2.14286 0.76784,1.53567 1.97379,2.81346 2.85715,4.28571 0.54783,0.91306 0.83793,1.97119 1.42857,2.85715 0.51425,0.77138 0.91431,0.65718 1.42857,1.42857 0.29532,0.44298 0.41896,0.98559 0.71428,1.42857 0.18678,0.28017 0.4762,0.47619 0.71429,0.71429 0.2381,0.47619 0.41897,0.98559 0.71429,1.42857 0.18677,0.28016 0.5275,0.43412 0.71428,0.71428 0.65558,0.98337 0.773,1.87378 1.42857,2.85715 0.56034,0.84049 1.53677,1.33473 2.14286,2.14285 0.31944,0.42592 0.39485,1.00266 0.71429,1.42858 0.40406,0.53874 0.95238,0.95238 1.42857,1.42857 0.71428,0.71428 1.42857,1.42857 2.14285,2.14285 1.66667,1.66667 3.23834,3.43408 5,5 8.26063,7.34279 -1.39817,-1.47872 7.85715,5 4.96634,3.47644 0.58023,2.36045 5.71428,4.28572 0.91919,0.34469 1.91323,0.44459 2.85715,0.71428 0.72395,0.20685 1.40017,0.59051 2.14285,0.71429 1.17428,0.19571 2.38096,0 3.57143,0 2.38095,0 4.76191,0 7.14286,0 1.90476,0 3.80952,0 5.71428,0 1.19048,0 2.40408,0.23347 3.57143,0 1.93473,-0.38695 1.17377,-1.13283 2.85715,-2.14286 0.64562,-0.38737 1.49723,-0.32691 2.14285,-0.71428 0.57747,-0.34648 0.95238,-0.95238 1.42857,-1.42857 0.95239,-0.95239 1.90477,-1.90477 2.85715,-2.85715 0.47619,-0.47619 0.9027,-1.00788 1.42857,-1.42857 1.3407,-1.07256 2.94502,-1.78458 4.28571,-2.85714 1.05173,-0.84139 1.70221,-2.16419 2.85715,-2.85714 0.64562,-0.38738 1.54051,-0.26254 2.14285,-0.71429 0.20605,-0.15453 1.9146,-3.8292 2.14286,-4.28571 0.47619,-0.95239 0.83793,-1.97119 1.42857,-2.85715 0.18678,-0.28016 0.5637,-0.41311 0.71429,-0.71428 0.10869,-0.21739 0,-1.82118 0,-2.14286 0,-2.14286 0,-4.28572 0,-6.42857 0,-4.52381 0,-9.04762 0,-13.57143 0,-5.71429 0,-11.42857 0,-17.14286 0,-1.90476 0,-3.80952 0,-5.71428 0,-0.71429 0.14008,-1.44245 0,-2.14286 -0.82077,-4.10383 -0.71429,0.205 -0.71429,-2.14286 0,-3.57143 0,-7.14286 0,-10.71428 0,-0.63838 0.11381,-3.34381 0,-3.57143 -0.15058,-0.30117 -0.5637,-0.41312 -0.71428,-0.71429 -0.10648,-0.21296 0.16836,-0.54592 0,-0.71428 -0.37647,-0.37647 -1.05211,-0.33783 -1.42858,-0.71429 -0.16835,-0.16836 0.13208,-0.51618 0,-0.71429 -0.37355,-0.56033 -0.95238,-0.95238 -1.42857,-1.42857 -0.23809,-0.23809 -0.6078,-0.39484 -0.71428,-0.71428 -0.15059,-0.45176 0.11549,-0.9666 0,-1.42857 -0.5179,-2.0716 -0.55727,-0.83591 -1.42857,-2.14286 -0.29532,-0.44298 -0.41897,-0.98559 -0.71429,-1.42857 -0.18678,-0.28017 -0.5637,-0.41312 -0.71429,-0.71429 -0.10647,-0.21296 0,-0.47619 0,-0.71428 -0.23809,-0.2381 -0.5637,-0.41312 -0.71428,-0.71429 -0.10648,-0.21296 0.16836,-0.54593 0,-0.71429 -0.16836,-0.16835 -0.54593,0.16836 -0.71429,0 -0.16836,-0.16835 0.16836,-0.54592 0,-0.71428 -0.16836,-0.16836 -0.54592,0.16836 -0.71428,0 -0.16836,-0.16836 0.10648,-0.50133 0,-0.71429 -0.78966,-1.57932 -0.44332,-0.22165 -1.42857,-0.71428 -1.57933,-0.78966 -0.22166,-0.44332 -0.71429,-1.42857 -0.78966,-1.57933 -0.44332,-0.22166 -1.42857,-0.71429 -0.30117,-0.15058 -0.47619,-0.47619 -0.71429,-0.71429 -0.23809,-0.23809 -0.5637,-0.41311 -0.71428,-0.71428 -0.38095,-0.76191 0.7071,-0.95477 -0.71429,-1.42857 -0.45175,-0.15059 -1.00265,0.21296 -1.42857,0 -0.21296,-0.10648 0.16836,-0.54593 0,-0.71429 -1.80422,-1.80421 -0.82342,-0.27447 -2.14286,-0.71428 -4.04692,-2.02346 1.0648,0.26619 -2.85714,-0.71429 -1.41849,-0.35462 -2.86722,-1.78823 -4.28571,-2.14286 -0.69296,-0.17324 -1.46523,0.22588 -2.14286,0 -0.50508,-0.16836 -0.9235,-0.54592 -1.42857,-0.71428 -0.22588,-0.0753 -0.47619,0 -0.71429,0 -0.47619,0 -0.97682,0.15058 -1.42857,0 -0.31944,-0.10648 -0.39485,-0.60781 -0.71429,-0.71429 -0.384,-0.128 -2.25239,0 -2.85714,0 -1.90476,0 -3.80952,0 -5.71428,0 -0.50629,0 -4.10104,-0.0923 -4.28572,0 -1.24175,0.62088 -2.38095,1.42857 -3.57143,2.14286 z"
       id="path3005"
       inkscape:connector-curvature="0" />
    <path
       style="fill:none;stroke:#000000;stroke-width:1px;stroke-linecap:butt;stroke-linejoin:miter;stroke-opacity:1"
       d="m 604.28571,518.79075 c -2.61904,0 -5.23809,0 -7.85714,0 -0.47619,0 -0.9666,-0.11549 -1.42857,0 -0.75153,0.18789 -3.31538,1.88682 -3.57143,2.14286 -0.60702,0.60703 -0.87899,1.48337 -1.42857,2.14286 -0.64668,0.77602 -1.42857,1.42857 -2.14286,2.14285 -2.32634,2.32634 -2.83526,2.46171 -4.28571,5 -1.05657,1.84901 -1.80057,3.86529 -2.85714,5.71429 -0.42592,0.74536 -1.04466,1.37502 -1.42858,2.14286 -0.40704,0.81409 -1.33702,4.35919 -1.42857,5 -0.10101,0.7071 0.11743,1.43829 0,2.14285 -0.12378,0.74268 -0.5905,1.40018 -0.71428,2.14286 -0.11743,0.70457 0,1.42857 0,2.14286 0,0.66667 0,4.66667 0,5 0,0.71428 0.10101,1.43575 0,2.14286 -0.13883,0.97182 -0.59252,1.88303 -0.71429,2.85714 -0.11813,0.94503 0,1.90476 0,2.85714 0,0.95238 0,1.90476 0,2.85714 0,2.61905 0,5.2381 0,7.85715 0,5.71428 0,11.42857 0,17.14285 0,1.44167 0,2.84405 0,4.28572 0,0.95238 -0.26164,1.94141 0,2.85714 0.23584,0.82544 1.04466,1.37503 1.42857,2.14286 0.67344,1.34687 0.86932,2.88757 1.42857,4.28571 0.59114,1.47784 1.55173,2.80789 2.14286,4.28572 0.27963,0.69907 0.37757,1.46942 0.71429,2.14286 0.15058,0.30116 0.52751,0.43411 0.71428,0.71428 0.29532,0.44298 0.41897,0.98559 0.71429,1.42857 0.18678,0.28017 0.47619,0.47619 0.71428,0.71429 0.2381,0.23809 0.43412,0.52751 0.71429,0.71428 0.44298,0.29532 1.00265,0.39485 1.42857,0.71429 0.53875,0.40406 0.88983,1.02451 1.42857,1.42857 4.06182,3.04637 -1.51681,-2.2311 2.85715,2.14286 0.47619,0.47619 0.95238,0.95238 1.42857,1.42857 0.47619,0.47619 0.88982,1.02451 1.42857,1.42857 0.42592,0.31944 1.00265,0.39485 1.42857,0.71429 1.30614,0.9796 1.87214,2.43232 3.57143,2.85714 0.69296,0.17324 1.42857,0 2.14286,0 1.42857,0 2.85714,0 4.28571,0 0.47619,0 0.9666,-0.11549 1.42857,0 0.5165,0.12912 0.91207,0.58516 1.42857,0.71429 0.54319,0.13579 2.9733,0 3.57143,0 1.033,0 4.24572,0.15085 5,0 1.96079,-0.39216 1.13446,-0.79832 2.14286,-2.14286 0.40406,-0.53875 1.00788,-0.90271 1.42857,-1.42857 0.53628,-0.67035 0.89229,-1.47251 1.42857,-2.14286 1.05173,-1.31466 2.49362,-2.27806 3.57143,-3.57143 1.09915,-1.31898 1.78459,-2.94502 2.85714,-4.28571 0.84139,-1.05173 2.04902,-1.77965 2.85715,-2.85715 0.31943,-0.42591 0.28836,-1.10913 0.71428,-1.42857 0.60234,-0.45175 1.46942,-0.37757 2.14286,-0.71428 0.30117,-0.15059 0.43412,-0.52751 0.71428,-0.71429 0.44299,-0.29532 0.9856,-0.41896 1.42858,-0.71428 0.56033,-0.37356 0.78969,-1.21562 1.42857,-1.42858 0.45175,-0.15058 0.97682,0.15059 1.42857,0 0.63888,-0.21296 0.86824,-1.05501 1.42857,-1.42857 0.88596,-0.59064 2.00531,-0.78969 2.85714,-1.42857 4.37396,-4.37395 -1.20467,0.90351 2.85715,-2.14286 0.53874,-0.40406 0.95238,-0.95238 1.42857,-1.42857 0.47619,-0.47619 1.02451,-0.88982 1.42857,-1.42857 0.31944,-0.42592 0.33782,-1.05211 0.71428,-1.42857 3.65028,-3.65027 -0.99623,2.99498 2.85715,-2.14286 0.31944,-0.42592 0.47619,-0.95238 0.71428,-1.42857 0.71429,-1.42857 1.42857,-2.85714 2.14286,-4.28571 0.2381,-0.47619 0.41897,-0.98559 0.71429,-1.42858 0.18677,-0.28016 0.5275,-0.43411 0.71428,-0.71428 0.59064,-0.88596 0.88074,-1.94409 1.42857,-2.85714 0.44168,-0.73613 1.04466,-1.37503 1.42857,-2.14286 0.33672,-0.67344 0.4762,-1.42857 0.71429,-2.14286 0.47619,-1.42857 0.95238,-2.85714 1.42857,-4.28571 0.47619,-1.42857 1.06335,-2.82483 1.42857,-4.28572 0.35126,-1.40503 0.29813,-2.89851 0.71429,-4.28571 0.30597,-1.01989 1.00913,-1.87844 1.42857,-2.85714 0.29659,-0.69205 0.47619,-1.42858 0.71429,-2.14286 0.23809,-0.71429 0.53167,-1.41242 0.71428,-2.14286 0.1407,-0.56279 0,-2.3912 0,-2.85714 0,-1.41605 0,-2.86967 0,-4.28572 0,-3.57142 0,-7.14285 0,-10.71428 0,-0.17323 0.023,-2.11989 0,-2.14286 -0.37646,-0.37646 -0.98559,-0.41896 -1.42857,-0.71428 -0.8405,-0.56034 -1.33473,-1.53677 -2.14286,-2.14286 -0.42591,-0.31944 -1.00265,-0.39485 -1.42857,-0.71429 -0.53875,-0.40406 -0.88982,-1.02451 -1.42857,-1.42857 -1.74262,-1.30697 -1.11452,-0.1216 -2.85714,-1.42857 -0.53875,-0.40406 -0.88983,-1.02451 -1.42857,-1.42857 -0.42592,-0.31944 -0.95238,-0.47619 -1.42858,-0.71429 -0.47619,-0.23809 -0.92349,-0.54592 -1.42857,-0.71428 -0.22587,-0.0753 -0.48841,0.0753 -0.71428,0 -0.50508,-0.16836 -0.9235,-0.54593 -1.42857,-0.71429 -0.45614,-0.15204 -3.38077,0.19066 -3.57143,0 -0.16836,-0.16836 0.16836,-0.54592 0,-0.71428 -0.19545,-0.19545 -2.46965,0.19374 -2.85715,0 -0.30116,-0.15059 -0.41311,-0.5637 -0.71428,-0.71429 -0.42144,-0.21072 -1.65155,0.16377 -2.14286,0 -0.50507,-0.16836 -0.92349,-0.54593 -1.42857,-0.71429 -0.22588,-0.0753 -0.50133,0.10648 -0.71429,0 -0.30116,-0.15058 -0.41311,-0.5637 -0.71428,-0.71428 -0.21296,-0.10648 -0.47619,0 -0.71429,0 -0.47619,0 -0.97681,0.15058 -1.42857,0 -0.31944,-0.10648 -0.41311,-0.5637 -0.71428,-0.71429 -0.21296,-0.10648 -0.50133,0.10648 -0.71429,0 -0.30117,-0.15058 -0.41312,-0.5637 -0.71429,-0.71428 -0.42591,-0.21296 -0.97681,0.15058 -1.42857,0 -1.56661,-0.52221 -1.29052,-0.90637 -2.85714,-1.42857 -0.45175,-0.15059 -1.00265,0.21296 -1.42857,0 -0.30117,-0.15059 -0.39485,-0.60781 -0.71429,-0.71429 -0.45175,-0.15058 -1.00265,0.21296 -1.42857,0 -0.21296,-0.10648 0.16836,-0.54593 0,-0.71429 -0.33672,-0.33671 -1.00265,0.21296 -1.42857,0 -0.30117,-0.15058 -0.41312,-0.5637 -0.71429,-0.71428 -0.21295,-0.10648 -0.47619,0 -0.71428,0 -0.2381,0 -0.47619,0 -0.71429,0 -1.42857,0 -2.85714,0 -4.28571,0 -2.38095,0 -4.76191,0 -7.14286,0 -1.00445,0 -2.6385,0.15549 -3.57143,0 -1.19753,-0.19959 -2.38095,-0.47619 -3.57143,-0.71429 z"
       id="path3007"
       inkscape:connector-curvature="0" />
    <text
       xml:space="preserve"
       style="font-size:32px;font-style:normal;font-variant:normal;font-weight:normal;font-stretch:normal;text-align:start;line-height:125%;letter-spacing:0px;word-spacing:0px;writing-mode:lr-tb;text-anchor:start;fill:#000000;fill-opacity:1;stroke:none;font-family:Sans;-inkscape-font-specification:Sans"
       x="77.85714"
       y="713.79077"
       id="text3781"
       sodipodi:linespacing="125%"><tspan
         sodipodi:role="line"
         id="tspan3783"
         x="77.85714"
         y="713.79077">CLIENT</tspan></text>
    <text
       xml:space="preserve"
       style="font-size:32px;font-style:normal;font-variant:normal;font-weight:normal;font-stretch:normal;text-align:start;line-height:125%;letter-spacing:0px;word-spacing:0px;writing-mode:lr-tb;text-anchor:start;fill:#000000;fill-opacity:1;stroke:none;font-family:Sans;-inkscape-font-specification:Sans"
       x="352.375"
       y="711.86774"
       id="text3781-8"
       sodipodi:linespacing="125%"><tspan
         sodipodi:role="line"
         id="tspan3783-7"
         x="352.375"
         y="711.86774">CLIENT</tspan></text>
    <path
       style="fill:none;stroke:#000000;stroke-width:1px;stroke-linecap:butt;stroke-linejoin:miter;stroke-opacity:1"
       d="m 377.14286,423.07647 c 0,-10.47619 0,-20.95238 0,-31.42857 0,-1.66667 0,-3.33334 0,-5 0,-0.47619 0,-0.95238 0,-1.42858 0,-0.47619 -0.21296,-1.00265 0,-1.42857 0.10648,-0.21296 0.54592,0.16836 0.71428,0 0.33672,-0.33671 -0.21296,-1.00265 0,-1.42857 2.36899,-2.36899 -0.33671,0.67344 0.71429,-1.42857 0.15058,-0.30117 0.5637,-0.41312 0.71428,-0.71429 0.10648,-0.21295 -0.10647,-0.50132 0,-0.71428 0.15059,-0.30117 0.56371,-0.41312 0.71429,-0.71429 0.10648,-0.21296 -0.10648,-0.50132 0,-0.71428 0.15059,-0.30117 0.5637,-0.41312 0.71429,-0.71429 0.10648,-0.21296 -0.10648,-0.50132 0,-0.71428 0.42857,-0.85715 1.71428,-1.28572 2.14285,-2.14286 0.10648,-0.21296 -0.16836,-0.54593 0,-0.71429 0.16836,-0.16836 0.54593,0.16836 0.71429,0 0.16836,-0.16836 -0.10648,-0.50132 0,-0.71428 0.0684,-0.13673 2.72041,-2.78878 2.85714,-2.85715 0.42592,-0.21295 1.09186,0.33672 1.42857,0 0.16836,-0.16835 -0.16836,-0.54592 0,-0.71428 0.16836,-0.16836 0.50133,0.10648 0.71429,0 0.95336,-0.47668 0.47521,-0.95189 1.42857,-1.42857 0.21296,-0.10648 0.50133,0.10648 0.71429,0 0.60233,-0.30117 0.82623,-1.1274 1.42857,-1.42857 0.21296,-0.10648 0.50132,0.10648 0.71428,0 0.30117,-0.15059 0.41312,-0.5637 0.71429,-0.71429 0.42592,-0.21296 0.97682,0.15059 1.42857,0 0.50508,-0.16836 0.9235,-0.54593 1.42857,-0.71429 0.22588,-0.0753 0.50133,0.10648 0.71429,0 0.30117,-0.15058 0.41311,-0.5637 0.71428,-0.71428 0.18468,-0.0923 3.77943,0 4.28572,0 0.39868,0 3.24445,-0.10899 3.57143,0 0.31943,0.10648 0.43412,0.52751 0.71428,0.71428 0.44298,0.29533 0.95238,0.4762 1.42857,0.71429 0.47619,0.47619 0.88983,1.02451 1.42857,1.42857 0.42592,0.31944 0.95239,0.47619 1.42858,0.71429 0.71428,0.23809 1.54051,0.26253 2.14285,0.71428 0.42592,0.31944 0.41897,0.98559 0.71429,1.42857 0.18678,0.28017 0.47619,0.4762 0.71428,0.71429 0.71429,0.71429 1.42858,1.42857 2.14286,2.14286 0.47619,0.47619 1.05502,0.86824 1.42857,1.42857 1.23407,1.8511 0.15511,1.87347 1.42857,3.57143 1.06732,1.42309 1.71062,1.12818 2.14286,2.85714 1.272,5.088 -2.16179,-3.61876 0.71429,3.57143 0.39545,0.98864 1.17032,1.82414 1.42857,2.85714 0.11549,0.46197 -0.11549,0.9666 0,1.42857 0.12912,0.5165 0.51656,0.93426 0.71428,1.42857 0.27963,0.69908 0.43466,1.44379 0.71429,2.14286 0.19773,0.49432 0.58516,0.91207 0.71429,1.42857 0.17324,0.69296 -0.22588,1.46523 0,2.14286 2.02346,4.04692 -0.2662,-1.06479 0.71428,2.85714 0.12913,0.5165 0.58516,0.91207 0.71429,1.42857 0.11549,0.46198 0,0.95239 0,1.42858 0,0.47619 0,0.95238 0,1.42857 0,1.42857 0,2.85714 0,4.28571 0,0.2381 0,0.47619 0,0.71429 0,0.23809 -0.16836,0.54592 0,0.71428 0.16836,0.16836 0.54592,-0.16836 0.71428,0 0.16836,0.16836 0,0.47619 0,0.71429 0,0.47619 0,0.95238 0,1.42857 0,2.38095 0,4.76191 0,7.14286 0,0.23809 0,0.47619 0,0.71428 0,0.2381 0.2381,0.71429 0,0.71429 -0.23809,0 0,-0.95238 0,-0.71429 0,0.47619 0,0.95238 0,1.42857 0,0.47631 0,0.95228 0,1.42858"
       id="path3836"
       inkscape:connector-curvature="0" />
    <path
       style="fill:none;stroke:#000000;stroke-width:1px;stroke-linecap:butt;stroke-linejoin:miter;stroke-opacity:1"
       d="m 397.14286,345.21932 c -0.95238,0 -2.85715,0.95239 -2.85715,0 0,-0.95238 3.80953,0 2.85715,0 -1.19048,0 -2.38095,0 -3.57143,0 -0.2381,0 -0.47619,0 -0.71429,0 -0.23809,0 -0.50132,-0.10647 -0.71428,0 -0.30117,0.15059 -0.5637,0.41312 -0.71429,0.71429 -0.28571,0.57143 0.28572,1.57143 0,2.14286 -0.15058,0.30117 -0.5637,0.41311 -0.71428,0.71428 -0.0939,0.18782 0,2.48363 0,2.85715 0,2.38095 0,4.7619 0,7.14285 0,0.17324 -0.023,2.11989 0,2.14286 0.19544,0.19544 2.46965,-0.19375 2.85714,0 0.30117,0.15059 0.41312,0.5637 0.71428,0.71429 0.21739,0.10869 1.82118,0 2.14286,0 1.66667,0 3.33334,0 5,0 1.90476,0 3.80953,0 5.71429,0 0.23809,0 0.54592,0.16835 0.71428,0 0.16836,-0.16836 -0.10648,-0.50133 0,-0.71429 0.15059,-0.30117 0.5637,-0.41312 0.71429,-0.71429 0.21296,-0.42591 -0.21296,-1.00265 0,-1.42857 0.15058,-0.30117 0.5637,-0.41311 0.71428,-0.71428 0.23201,-0.46402 -0.22654,-3.11835 0,-3.57143 0.15059,-0.30117 0.56371,-0.41312 0.71429,-0.71429 0.10648,-0.21296 0,-0.47619 0,-0.71428 0,-0.47619 0,-0.95238 0,-1.42857 0,-1.90477 0,-3.80953 0,-5.71429 0,-0.23809 0,-0.47619 0,-0.71429 0,-0.23809 0.16836,-0.54592 0,-0.71428 -0.16836,-0.16836 -0.54593,0.16836 -0.71429,0 -0.16835,-0.16836 0.16836,-0.54593 0,-0.71429 -0.023,-0.023 -1.96962,0 -2.14285,0 -1.42857,0 -2.85715,0 -4.28572,0 -0.46936,0 -1.73985,-0.13433 -2.14285,0 -1.21639,0.40546 -2.38096,0.95238 -3.57143,1.42857 z"
       id="path3838"
       inkscape:connector-curvature="0" />
    <path
       style="fill:none;stroke:#000000;stroke-width:1px;stroke-linecap:butt;stroke-linejoin:miter;stroke-opacity:1"
       d="m 378.57143,343.07647 c 2.14286,0 4.28571,0 6.42857,0 0.2381,0 0.50133,-0.10648 0.71429,0 0.30117,0.15058 0.41311,0.5637 0.71428,0.71428 0.57143,0.28572 1.57143,-0.28571 2.14286,0 0.30117,0.15059 0.41312,0.5637 0.71428,0.71429 0.25831,0.12915 3.07462,0 3.57143,0 2.61905,0 5.2381,0 7.85715,0 7.38095,0 14.7619,0 22.14285,0 3.09524,0 6.19048,0 9.28572,0 0.23809,0 0.47619,0 0.71428,0 0.2381,0 0.54593,0.16836 0.71429,0 0.16836,-0.16836 0,-0.47619 0,-0.71429 0,-1.66666 0,-3.33333 0,-5 0,-0.23809 0.16836,-0.54592 0,-0.71428 -0.16836,-0.16836 -0.47619,0 -0.71429,0 -0.23809,0 -0.47619,0 -0.71428,0 -2.38095,0 -4.76191,0 -7.14286,0 -0.23809,0 -0.47619,0 -0.71429,0 -0.23809,0 -0.54592,0.16836 -0.71428,0 -0.16836,-0.16836 0.16836,-0.54593 0,-0.71429 -0.22118,-0.22117 -3.35025,0.22118 -3.57143,0 -0.16836,-0.16836 0.16836,-0.54593 0,-0.71428 -0.33672,-0.33672 -1.00265,0.21296 -1.42857,0 -0.30117,-0.15059 -0.41312,-0.5637 -0.71429,-0.71429 -0.28321,-0.1416 -1.99683,0.14603 -2.14285,0 -0.16836,-0.16836 0.16835,-0.54593 0,-0.71429 -0.33672,-0.33671 -1.00266,0.21296 -1.42858,0 -0.30116,-0.15058 -0.41311,-0.5637 -0.71428,-0.71428 -0.21296,-0.10648 -0.54593,0.16836 -0.71429,0 -0.33671,-0.33672 0.33672,-1.09185 0,-1.42857 -0.16836,-0.16836 -0.54592,0.16836 -0.71428,0 -0.33672,-0.33672 0.33672,-1.09186 0,-1.42857 -0.16836,-0.16836 -0.60781,0.21295 -0.71429,0 -0.21296,-0.42592 0.15059,-0.97682 0,-1.42858 -0.10648,-0.31943 -0.5637,-0.41311 -0.71428,-0.71428 -0.10648,-0.21296 0.16835,-0.54593 0,-0.71429 -0.16836,-0.16836 -0.54593,0.16836 -0.71429,0 -0.16836,-0.16836 0.10648,-0.50132 0,-0.71428 -0.15058,-0.30117 -0.5637,-0.41312 -0.71429,-0.71429 -0.1416,-0.28321 0.14603,-1.99683 0,-2.14286 -0.33671,-0.33671 -1.09185,0.33672 -1.42857,0 -0.16836,-0.16835 0.10648,-0.50132 0,-0.71428 -0.30117,-0.60234 -1.1274,-0.82623 -1.42857,-1.42857 -0.10648,-0.21296 0.16836,-0.54593 0,-0.71429 -0.16836,-0.16836 -0.54593,0.16836 -0.71428,0 -0.16836,-0.16836 0.16835,-0.54593 0,-0.71428 -0.35715,-0.35715 -1.78572,0.35714 -2.14286,0 -0.16836,-0.16836 0.16836,-0.54593 0,-0.71429 -0.16836,-0.16836 -0.47619,0 -0.71429,0 -0.23809,0 -0.47619,0 -0.71428,0 -1.66667,0 -3.33334,0 -5,0 -0.2381,0 -0.54593,-0.16836 -0.71429,0 -0.16836,0.16836 0.0753,0.48841 0,0.71429 0.43052,1.29281 -1.1571,1.32844 -1.42857,2.14285 -0.0773,0.2319 0.14575,1.7056 0,2.14286 -0.16836,0.50508 -0.54593,0.9235 -0.71429,1.42857 -0.16376,0.49131 0.21073,1.72142 0,2.14286 -0.15058,0.30117 -0.5637,0.41312 -0.71428,0.71428 -0.10648,0.21296 0,0.4762 0,0.71429 0,0.47619 0.15058,0.97682 0,1.42857 -0.10648,0.31944 -0.5637,0.41312 -0.71429,0.71429 -0.28571,0.57143 0.28572,1.57143 0,2.14285 -0.15058,0.30117 -0.5637,0.41312 -0.71428,0.71429 -0.49263,0.98526 0.86504,0.63891 -0.71429,1.42857 -0.38097,0.19049 -1.0476,-0.19048 -1.42857,0 -0.30117,0.15059 -0.41312,0.5637 -0.71429,0.71429 -0.21738,0.10869 -1.82117,0 -2.14285,0 -1.66667,0 -3.33334,0 -5,0 -0.17324,0 -2.11989,-0.023 -2.14286,0 -0.33672,0.33672 0.15059,0.97682 0,1.42857 -0.40546,1.21638 -0.95238,2.38095 -1.42857,3.57143 z"
       id="path3842"
       inkscape:connector-curvature="0" />
    <path
       style="fill:none;stroke:#000000;stroke-width:1px;stroke-linecap:butt;stroke-linejoin:miter;stroke-opacity:1"
       d="m 395.71429,350.93361 2.14285,-0.71429"
       id="path3844"
       inkscape:connector-curvature="0" />
    <path
       style="fill:none;stroke:#000000;stroke-width:1px;stroke-linecap:butt;stroke-linejoin:miter;stroke-opacity:1"
       d="m 405.71429,349.50504 -2.14286,1.42857"
       id="path3846"
       inkscape:connector-curvature="0" />
    <path
       style="fill:none;stroke:#000000;stroke-width:1px;stroke-linecap:butt;stroke-linejoin:miter;stroke-opacity:1"
       d="m 396.42857,355.93361 c 0,0.95238 0.95238,2.85714 0,2.85714 -0.95238,0 0,-3.80952 0,-2.85714 0,1.19048 -0.23347,2.40407 0,3.57143 0.002,0.009 1.89244,0 2.85714,0 1.19048,0 2.38096,0 3.57143,0 0.2381,0 0.54593,0.16836 0.71429,0 0.33672,-0.33672 -0.33672,-1.09185 0,-1.42857 0.16836,-0.16836 0.54593,0.16836 0.71428,0 0.16836,-0.16836 -0.16835,-0.54593 0,-0.71429 0.16836,-0.16836 0.4762,0 0.71429,0 0.2381,0 0.47619,0 0.71429,0"
       id="path3848"
       inkscape:connector-curvature="0" />
    <path
       style="fill:none;stroke:#c10000;stroke-width:4;stroke-linecap:butt;stroke-linejoin:miter;stroke-opacity:1;stroke-miterlimit:4;stroke-dasharray:none"
       d="m 127.85714,269.97097 c 0.47619,-1.19047 0.71735,-2.50459 1.42857,-3.57143 0.0517,-0.0776 2.5726,-1.23887 2.85715,-1.42857 0.28016,-0.18677 0.41311,-0.5637 0.71428,-0.71428 0.42592,-0.21296 1.09186,0.33672 1.42857,0 0.16836,-0.16836 -0.16835,-0.54593 0,-0.71429 0.16836,-0.16836 0.54593,0.16836 0.71429,0 0.16836,-0.16836 -0.16836,-0.54593 0,-0.71428 0.16836,-0.16836 0.50133,0.10648 0.71429,0 0.30117,-0.15059 0.41311,-0.5637 0.71428,-0.71429 0.57143,-0.28571 1.57143,0.28571 2.14286,0 0.56419,-0.28209 0.86438,-1.14648 1.42857,-1.42857 0.25831,-0.12916 3.07461,0 3.57143,0 0.24334,0 2.47057,0.12886 2.85714,0 0.50508,-0.16836 0.91207,-0.58516 1.42857,-0.71429 0.93916,-0.23478 2.68433,0.29571 3.57143,0 0.31944,-0.10648 0.41312,-0.5637 0.71429,-0.71428 0.28321,-0.14161 1.99683,0.14602 2.14285,0 0.16836,-0.16836 -0.16835,-0.54593 0,-0.71429 0.33672,-0.33672 1.00266,0.21296 1.42858,0 3.269,-1.6345 -3.03102,0.29605 2.14285,-1.42857 1.42857,-0.47619 0.2381,0.2381 0.71429,0.71429 0.16836,0.16835 0.47619,0 0.71428,0 4.04762,0 8.09524,0 12.14286,0 12.85714,0 25.71429,0 38.57143,0 1.90476,0 -0.2381,-0.2381 0.71429,0.71428 0.33671,0.33672 1.00265,-0.21296 1.42857,0 0.60234,0.30117 0.82623,1.1274 1.42857,1.42857 0.21296,0.10648 0.54593,-0.16836 0.71428,0 0.33672,0.33672 -0.21295,1.00266 0,1.42857 0.30117,0.60234 1.05502,0.86824 1.42858,1.42858 0.29532,0.44298 0.33782,1.05211 0.71428,1.42857 0.16836,0.16836 0.54593,-0.16836 0.71429,0 0.16836,0.16836 -0.10648,0.50132 0,0.71428 0.15058,0.30117 0.5637,0.41312 0.71428,0.71429 0.055,0.10989 -0.31135,2.45421 0.71429,1.42857 0.16836,-0.16836 0,-0.47619 0,-0.71429 0,-0.23809 0,-0.47619 0,-0.71428 0,-4.04762 0,-8.09524 0,-12.14286"
       id="path3933"
       inkscape:connector-curvature="0"
       transform="translate(79.654015,320.36158)" />
    <path
       style="fill:none;stroke:#c10000;stroke-width:4;stroke-linecap:butt;stroke-linejoin:miter;stroke-opacity:1;stroke-miterlimit:4;stroke-dasharray:none"
       d="m 217.85714,267.11383 c -0.95238,-0.23809 -1.8888,-0.5529 -2.85714,-0.71429 -0.89337,-0.14889 -4.1918,0 -5,0 -0.2381,0 -0.47619,0 -0.71429,0 -0.23809,0 -0.54592,0.16836 -0.71428,0 -0.16836,-0.16835 0.16836,-0.54592 0,-0.71428 -0.95238,-0.95238 -0.71429,1.19048 -0.71429,-0.71429"
       id="path3935"
       inkscape:connector-curvature="0"
       transform="translate(79.654015,320.36158)" />
    <path
       style="fill:none;stroke:#c10000;stroke-width:4;stroke-linecap:butt;stroke-linejoin:miter;stroke-opacity:1;stroke-miterlimit:4;stroke-dasharray:none"
       d="m 213.57143,277.11383 c 0,3.90815 0.84179,2.72964 -0.71429,4.28571 -0.23809,0.2381 -0.5637,0.41312 -0.71428,0.71429 -0.10648,0.21296 0.16836,0.54593 0,0.71429 -0.33672,0.33671 -1.09186,-0.33672 -1.42857,0 -0.16836,0.16835 0.16835,0.54592 0,0.71428 -1.47789,1.47788 0.0578,-2.2584 -1.42858,0.71429 -0.10647,0.21296 0.16836,0.54592 0,0.71428 -0.23692,0.23693 -1.19164,-0.23692 -1.42857,0 -0.16836,0.16836 0.16836,0.54593 0,0.71429 -0.19544,0.19544 -2.46965,-0.19375 -2.85714,0 -0.30117,0.15058 -0.41312,0.5637 -0.71429,0.71428 -0.57142,0.28572 -1.57142,-0.28571 -2.14285,0 -0.30117,0.15059 -0.41312,0.56371 -0.71429,0.71429 -0.57143,0.28571 -1.57143,-0.28571 -2.14286,0 -0.30116,0.15059 -0.41311,0.5637 -0.71428,0.71429 -0.57143,0.28571 -1.57143,-0.28572 -2.14286,0 -0.30117,0.15058 -0.41311,0.5637 -0.71428,0.71428 -0.37875,0.18937 -3.0855,-0.16197 -3.57143,0 -0.31944,0.10648 -0.41312,0.5637 -0.71429,0.71429 -0.21296,0.10648 -0.50133,-0.10648 -0.71428,0 -0.30117,0.15058 -0.41312,0.5637 -0.71429,0.71428 -0.42592,0.21296 -1.00265,-0.21296 -1.42857,0 -0.30117,0.15059 -0.41312,0.5637 -0.71429,0.71429 -0.21296,0.10648 -0.47619,0 -0.71428,0 -0.85401,0 -3.81953,-0.1554 -4.28572,0 -0.50507,0.16836 -0.92349,0.54593 -1.42857,0.71428 -0.45175,0.15059 -1.00265,-0.21295 -1.42857,0 -0.30117,0.15059 -0.41312,0.56371 -0.71429,0.71429 -0.21295,0.10648 -0.47619,0 -0.71428,0 -0.47619,0 -0.95238,0 -1.42857,0 -1.19048,0 -2.38096,0 -3.57143,0 -4.76191,0 -9.52381,0 -14.28572,0 -4.04761,0 -8.09523,0 -12.14285,0 -0.73587,0 -4.78918,0.10541 -5,0 -0.30117,-0.15058 -0.41312,-0.5637 -0.71429,-0.71429 -0.44894,-0.22447 -2.4082,0.22448 -2.85714,0 -0.30117,-0.15058 -0.41312,-0.5637 -0.71429,-0.71428 -0.28321,-0.14161 -1.99683,0.14603 -2.14285,0 -0.16836,-0.16836 0.16835,-0.54593 0,-0.71429 -0.16836,-0.16836 -0.50133,0.10648 -0.71429,0 -0.30117,-0.15058 -0.41312,-0.5637 -0.71429,-0.71428 -0.42591,-0.21296 -1.00265,0.21296 -1.42857,0 -0.54563,-0.27282 -1.65918,-1.98163 -2.14285,-2.14286 -0.45176,-0.15058 -0.97682,0.15059 -1.42858,0 -0.31943,-0.10648 -0.41311,-0.5637 -0.71428,-0.71429 -2.10201,-1.051 0.94041,1.65471 -1.42857,-0.71428 -2.36899,-2.36899 0.33671,0.67343 -0.71429,-1.42857 -0.15058,-0.30117 -0.5637,-0.41312 -0.71428,-0.71429 -0.10648,-0.21296 0.10648,-0.50132 0,-0.71428 -0.19075,-0.38149 -1.76682,-1.76681 -2.14286,-2.14286 -0.2381,-0.2381 -0.41312,-0.5637 -0.71429,-0.71429 -0.21296,-0.10648 -0.54592,0.16836 -0.71428,0 -0.16836,-0.16836 0,-0.95238 0,-0.71428 0,2.38095 0,4.7619 0,7.14285 0,0.71429 0,1.42858 0,2.14286 0,0.2381 0,0.95238 0,0.71429 0,-3.57143 0,-7.14286 0,-10.71429 0,-0.47619 0,-0.95238 0,-1.42857 0,-0.23809 -0.16836,-0.54593 0,-0.71429 0.16836,-0.16835 0.47619,0 0.71428,0 0.47619,0 0.97682,-0.15058 1.42857,0 0.31944,0.10648 0.39485,0.60781 0.71429,0.71429 3.25163,0 0.0409,-0.33672 2.14286,0.71429 0.49338,0.24669 3.3207,-0.25073 3.57143,0 0.16835,0.16835 -0.16836,0.54592 0,0.71428 0.16835,0.16836 0.71428,-0.23809 0.71428,0 0,0.2381 -0.47619,0 -0.71428,0"
       id="path3937"
       inkscape:connector-curvature="0"
       transform="translate(79.654015,320.36158)" />
    <path
       style="fill:none;stroke:#da0000;stroke-width:4;stroke-linecap:butt;stroke-linejoin:miter;stroke-opacity:1;stroke-miterlimit:4;stroke-dasharray:none"
       d="m 92.142857,299.97097 c -1.190476,0 -2.40407,-0.23347 -3.571428,0 -0.233472,0.0467 0.106479,0.50133 0,0.71429 -0.546992,1.09398 -1.272869,0.55858 -2.142857,1.42857 -0.168359,0.16836 0.106479,0.50133 0,0.71429 -0.150585,0.30117 -0.563702,0.41311 -0.714286,0.71428 -0.10648,0.21296 0.168359,0.54593 0,0.71429 -0.168359,0.16836 -0.545927,-0.16836 -0.714286,0 -0.168359,0.16836 0.10648,0.50132 0,0.71428 -1.625816,1.62582 -0.188784,-0.14793 -0.714286,1.42857 -1.724623,5.17387 0.205932,-1.12614 -1.428571,2.14286 -0.212959,0.42592 0.336717,1.09186 0,1.42857 -0.168359,0.16836 -0.545927,-0.16836 -0.714286,0 -0.146026,0.14603 0.141604,1.85965 0,2.14286 -0.150584,0.30117 -0.563701,0.41312 -0.714285,0.71429 -0.212959,0.42591 0.336717,1.09185 0,1.42857 -0.168359,0.16836 -0.545927,-0.16836 -0.714286,0 -0.195445,0.19544 0.193745,2.46965 0,2.85714 -0.150585,0.30117 -0.563701,0.41312 -0.714286,0.71429 -0.09234,0.18468 0,3.77942 0,4.28571 0,0.2381 0.10648,0.50133 0,0.71429 -0.150585,0.30117 -0.563701,0.41311 -0.714286,0.71428 -0.212958,0.42592 0.336718,1.09186 0,1.42857 -0.168358,0.16836 -0.545927,-0.16836 -0.714285,0 -0.168359,0.16836 0,0.47619 0,0.71429 0,0.23809 0,0.47619 0,0.71428 0,3.80953 0,7.61905 0,11.42858 0,2.61904 0,5.23809 0,7.85714 0,0.49681 -0.129155,3.31312 0,3.57143 0.150584,0.30117 0.563701,0.41311 0.714285,0.71428 0.212959,0.42592 -0.212958,1.00266 0,1.42857 0.30117,0.60234 1.127402,0.82624 1.428572,1.42858 0.106479,0.21296 -0.168359,0.54592 0,0.71428 0.168359,0.16836 0.545927,-0.16836 0.714286,0 0.168358,0.16836 -0.10648,0.50133 0,0.71429 0.150584,0.30117 0.47619,0.47619 0.714285,0.71428 0.238095,0.2381 0.413117,0.5637 0.714286,0.71429 0.425918,0.21296 1.091854,-0.33672 1.428571,0 0.168359,0.16836 -0.168358,0.54593 0,0.71428 0.168359,0.16836 0.607807,0.21296 0.714286,0 0.212959,-0.42591 0,-0.95238 0,-1.42857 0,-2.85714 0,-5.71428 0,-8.57143 0,-0.71428 0,-1.42857 0,-2.14285 0,-0.2381 0,-0.95238 0,-0.71429 0,2.85714 0,5.71429 0,8.57143 0,1.42857 0,2.85714 0,4.28571 0,0.2381 0.238095,0.71429 0,0.71429 -0.238095,0 0,-0.95238 0,-0.71429 0,0.4762 0.212959,1.00266 0,1.42858 -0.106479,0.21296 -0.47619,0 -0.714286,0 -1.190476,0 -2.380952,0 -3.571428,0 -3.679787,0 -7.49224,0 -9.285714,0"
       id="path3947"
       inkscape:connector-curvature="0"
       transform="translate(79.654015,320.36158)" />
    <path
       style="fill:none;stroke:#da0000;stroke-width:4;stroke-linecap:butt;stroke-linejoin:miter;stroke-opacity:1;stroke-miterlimit:4;stroke-dasharray:none"
       d="m 119.28571,372.82812 c 1.66667,0 3.33334,0 5,0 0.2381,0 0.47619,0 0.71429,0 0.2381,0 0.50133,-0.10648 0.71429,0 0.30117,0.15058 0.41311,0.5637 0.71428,0.71428 0.21296,0.10648 0.50133,-0.10648 0.71429,0 0.30117,0.15059 0.41311,0.5637 0.71428,0.71429 0.21296,0.10648 0.54593,-0.16836 0.71429,0 0.16836,0.16836 -0.16836,0.54592 0,0.71428 0.23693,0.23693 1.19164,-0.23692 1.42857,0 0.16836,0.16836 -0.16836,0.54593 0,0.71429 0.33672,0.33672 1.00265,-0.21296 1.42857,0 0.30117,0.15058 0.41312,0.5637 0.71429,0.71428 0.21296,0.10648 0.50132,-0.10647 0.71428,0 0.30117,0.15059 0.41312,0.56371 0.71429,0.71429 0.21296,0.10648 0.50133,-0.10648 0.71428,0 0.30117,0.15059 0.41312,0.5637 0.71429,0.71429 0.44894,0.22447 2.4082,-0.22448 2.85714,0 0.30117,0.15058 0.41312,0.5637 0.71429,0.71428 0.45062,0.22531 3.12081,-0.22531 3.57143,0 0.30117,0.15059 0.41311,0.5637 0.71428,0.71429 0.21296,0.10648 0.47619,0 0.71429,0 0.47619,0 0.97682,-0.15059 1.42857,0 0.31944,0.10648 0.41312,0.5637 0.71429,0.71428 0.42591,0.21296 1.09185,-0.33671 1.42857,0 0.16836,0.16836 -0.16836,0.54593 0,0.71429 0.33671,0.33672 1.09185,-0.33672 1.42857,0 0.16836,0.16836 -0.16836,0.54593 0,0.71428 0.16836,0.16836 0.50133,-0.10647 0.71428,0 0.30117,0.15059 0.41312,0.56371 0.71429,0.71429 0.38749,0.19375 2.6617,-0.19544 2.85714,0 0.16836,0.16836 -0.21296,0.60781 0,0.71429 0.57143,0.28571 1.57143,-0.28572 2.14286,0 0.30117,0.15058 0.41312,0.5637 0.71429,0.71428 0.21738,0.10869 1.82117,0 2.14285,0 1.42857,0 2.85715,0 4.28572,0 0.23809,0 0.47619,0 0.71428,0 0.2381,0 0.54593,-0.16836 0.71429,0 0.16836,0.16836 -0.16836,0.54593 0,0.71429 0.16836,0.16836 0.47619,0 0.71428,0 0.47619,0 1.00266,-0.21296 1.42858,0 0.21295,0.10648 -0.21296,0.6078 0,0.71428 1.42857,0.71429 1.07142,-0.35714 2.14285,0 0.50508,0.16836 0.9235,0.54593 1.42857,0.71429 0.403,0.13433 1.6735,0 2.14286,0 1.90476,0 3.80953,0 5.71429,0 1.42857,0 2.85714,0 4.28571,0 0.2381,0 0.47619,0 0.71429,0 0.23809,0 0.50132,-0.10648 0.71428,0 0.30117,0.15058 0.39485,0.60781 0.71429,0.71428 0.67763,0.22588 1.42857,0 2.14286,0 3.09523,0 6.19047,0 9.28571,0 0.56997,0 3.1429,-0.14284 3.57143,0 0.50508,0.16836 0.92349,0.54593 1.42857,0.71429 0.22588,0.0753 0.47619,0 0.71429,0 0.75558,0 4.63202,-0.12266 5,0 0.31943,0.10648 0.39484,0.60781 0.71428,0.71429 0.67763,0.22587 1.42857,0 2.14286,0 1.19047,0 2.38095,0 3.57143,0 1.19047,0 2.38095,0 3.57143,0 0.23809,0 0.47619,0 0.71428,0 0.2381,0 0.50133,-0.10648 0.71429,0 0.30117,0.15058 0.41311,0.5637 0.71428,0.71428 0.18782,0.0939 2.48363,0 2.85715,0 2.14285,0 4.28571,0 6.42857,0 2.85714,0 5.71428,0 8.57143,0 0.49323,0 2.63997,0.10859 2.85714,0 0.30117,-0.15058 0.41312,-0.5637 0.71428,-0.71428 0.42592,-0.21296 1.00266,0.21296 1.42858,0 0.30117,-0.15059 0.41311,-0.5637 0.71428,-0.71429 0.21296,-0.10648 0.48841,0.0753 0.71429,0 0.50507,-0.16836 0.92349,-0.54593 1.42857,-0.71429 0.45175,-0.15058 1.09185,0.33672 1.42857,0 0.16836,-0.16835 -0.16836,-0.54592 0,-0.71428 0.16836,-0.16836 0.50133,0.10648 0.71429,0 0.30117,-0.15059 0.39484,-0.60781 0.71428,-0.71429 0.45176,-0.15058 1.00266,0.21296 1.42857,0 0.21296,-0.10648 -0.16836,-0.54592 0,-0.71428 0.17188,-0.17188 2.68527,0.17188 2.85715,0 0.16835,-0.16836 -0.16836,-0.54593 0,-0.71429 0.33671,-0.33672 0.97681,0.15059 1.42857,0 1.01015,-0.33672 1.82414,-1.17032 2.85714,-1.42857 0.59242,-0.1481 3.1041,0.23366 3.57143,0 0.21296,-0.10648 -0.16836,-0.54593 0,-0.71429 0.14602,-0.14602 1.85965,0.14161 2.14286,0 0.30117,-0.15058 0.39484,-0.6078 0.71428,-0.71428 0.40633,-0.13544 2.89869,0 3.57143,0 0.2381,0 0.54593,0.16836 0.71429,0 0.0714,-0.0714 0.0714,-2.07143 0,-2.14286 -0.16836,-0.16836 -0.47619,0 -0.71429,0 -1.42857,0 -2.85714,0 -4.28571,0 -0.2381,0 -0.54593,0.16836 -0.71429,0 -0.16836,-0.16836 0.16836,-0.54592 0,-0.71428 -0.14603,-0.14603 -1.85965,0.1416 -2.14286,0 -0.30117,-0.15059 -0.41311,-0.5637 -0.71428,-0.71429 -0.28321,-0.1416 -1.99683,0.14603 -2.14286,0 -0.16836,-0.16836 0.16836,-0.54593 0,-0.71429 -0.16836,-0.16835 -0.54593,0.16836 -0.71429,0 -1.47788,-1.47788 2.2584,0.0578 -0.71428,-1.42857 -0.42688,-0.21344 -1.42857,0.47021 -1.42857,-0.71428 0,-0.2381 0.47619,0 0.71428,0 0.2381,0 0.47619,0 0.71429,0 0.17323,0 2.11988,-0.023 2.14286,0 0.16835,0.16836 -0.16836,0.54592 0,0.71428 0.14602,0.14603 1.85964,-0.1416 2.14285,0 0.30117,0.15059 0.41312,0.5637 0.71429,0.71429 0.42592,0.21296 1.09185,-0.33672 1.42857,0 0.16836,0.16836 -0.10648,0.50133 0,0.71428 1.48634,2.97269 -0.0493,-0.76359 1.42857,0.71429 0.37646,0.37646 0.33783,1.05211 0.71429,1.42857 0.16836,0.16836 0.50132,-0.10648 0.71428,0 0.30117,0.15059 0.41312,0.5637 0.71429,0.71429 0.21296,0.10648 0.54593,-0.16836 0.71428,0 0.16836,0.16836 -0.16835,0.54592 0,0.71428 0.16836,0.16836 0.54593,-0.16836 0.71429,0 0.16836,0.16836 -0.16836,0.54593 0,0.71429 0.33672,0.33672 1.09185,-0.33672 1.42857,0 0.0288,0.0287 0,2.59483 0,2.85714 0,0.33679 0.0324,3.53906 0,3.57143 -0.16836,0.16836 -0.47619,0 -0.71428,0 0,0.2381 0.16835,0.54593 0,0.71429 -0.16836,0.16836 -0.54593,-0.16836 -0.71429,0 -0.16836,0.16836 0.16836,0.54592 0,0.71428 -1.47788,1.47788 0.0578,-2.2584 -1.42857,0.71429 -0.10648,0.21296 0.16836,0.54592 0,0.71428 -0.0287,0.0288 -2.59483,0 -2.85714,0"
       id="path3951"
       inkscape:connector-curvature="0"
       transform="translate(79.654015,320.36158)" />
    <path
       style="fill:none;stroke:#da0000;stroke-width:4;stroke-linecap:butt;stroke-linejoin:miter;stroke-opacity:1;stroke-miterlimit:4;stroke-dasharray:none"
       d="m 393.57143,376.39954 c 0.57264,-3.01063 2.48555,-0.17134 3.57143,-0.71428 0.30117,-0.15059 0.41311,-0.5637 0.71428,-0.71429 0.21296,-0.10648 0.54593,0.16836 0.71429,0 0.16836,-0.16836 -0.16836,-0.54592 0,-0.71428 0.35714,-0.35715 1.78571,0.35714 2.14286,0 0.16835,-0.16836 -0.16836,-0.54593 0,-0.71429 0.33671,-0.33672 1.09185,0.33672 1.42857,0 0.16836,-0.16836 -0.16836,-0.54592 0,-0.71428 0.33672,-0.33672 1.00265,0.21296 1.42857,0 2.36899,-2.36899 -0.67344,0.33671 1.42857,-0.71429 0.30117,-0.15058 0.41312,-0.5637 0.71429,-0.71429 0.21295,-0.10647 0.50132,0.10648 0.71428,0 2.97269,-1.48634 -0.76359,0.0493 0.71429,-1.42857 0.16836,-0.16836 0.54592,0.16836 0.71428,0 0,-1.90476 -0.23809,0.2381 0.71429,-0.71428 0.16836,-0.16836 -0.10648,-0.50133 0,-0.71429 0.15058,-0.30117 0.47619,-0.47619 0.71428,-0.71428 0.2381,-0.2381 0.39485,-0.60781 0.71429,-0.71429 4.04762,0 0.2381,0.47619 1.42857,-0.71429 0.33672,-0.33671 1.09186,0.33672 1.42857,0 0.33672,-0.33671 -0.21296,-1.00265 0,-1.42857 0.0948,-0.18965 1.95321,-2.04803 2.14286,-2.14285 0.21296,-0.10648 0.50133,0.10648 0.71429,0 0.60233,-0.30117 0.82623,-1.12741 1.42857,-1.42858 0.21296,-0.10647 0.54592,0.16836 0.71428,0 0.33672,-0.33671 -0.21296,-1.00265 0,-1.42857 0.30117,-0.60234 1.05502,-0.86824 1.42857,-1.42857 0.29533,-0.44298 0.41897,-0.98559 0.71429,-1.42857 0.37355,-0.56033 1.1274,-0.82623 1.42857,-1.42857 0.21296,-0.42592 -0.33672,-1.09185 0,-1.42857 0.16836,-0.16836 0.54593,0.16836 0.71429,0 6.8e-4,-6.8e-4 -10e-4,-2.13962 0,-2.14286 0.10648,-0.31944 0.5637,-0.41312 0.71428,-0.71429 0.10648,-0.21295 -0.10648,-0.50132 0,-0.71428 0.15059,-0.30117 0.5637,-0.41312 0.71429,-0.71429 0.10648,-0.21296 -0.0753,-0.48841 0,-0.71428 0.16836,-0.50508 0.54593,-0.9235 0.71428,-1.42857 0.0753,-0.22588 -0.10647,-0.50133 0,-0.71429 0.15059,-0.30117 0.56371,-0.41312 0.71429,-0.71429 0.21296,-0.42591 -0.33672,-1.09185 0,-1.42857 0.16836,-0.16836 0.54593,0.16836 0.71429,0 0.004,-0.004 -0.006,-2.11898 0,-2.14285 0.12912,-0.5165 0.54592,-0.9235 0.71428,-1.42858 0.15059,-0.45175 0,-0.95238 0,-1.42857 0,-1.19047 0,-2.38095 0,-3.57143 0,-0.23809 -0.16836,-0.54592 0,-0.71428 0.16836,-0.16836 0.54593,0.16836 0.71429,0 0.16836,-0.16836 0,-0.47619 0,-0.71429 0,-0.95238 0,-1.90476 0,-2.85714 0,-0.47619 -0.0934,-0.96163 0,-1.42857 0.78958,-3.94789 0.71428,-0.89056 0.71428,-2.85714 0,-4.52381 0,-9.04762 0,-13.57143 0,-3.25163 -0.33671,-0.0408 0.71429,-2.14286 0.10648,-0.21296 -0.2381,-0.71429 0,-0.71429 0.23809,0 0,0.4762 0,0.71429 0,0.2381 0,0.47619 0,0.71429 0,0.37351 0.0939,2.66932 0,2.85714 -0.15059,0.30117 -0.60781,0.39485 -0.71429,0.71428 -0.15058,0.45176 0,0.95239 0,1.42858 0,0.23809 0.10648,0.50132 0,0.71428 -0.15058,0.30117 -0.5637,0.41312 -0.71428,0.71429 -0.10648,0.21296 0.16836,0.54592 0,0.71428 -0.16836,0.16836 -0.54593,-0.16836 -0.71429,0 -0.16836,0.16836 0.10648,0.50133 0,0.71429 -0.54699,1.09398 -1.27287,0.55858 -2.14286,1.42857 -0.16835,0.16836 0.16836,0.54593 0,0.71429 -0.16835,0.16835 -0.54592,-0.16836 -0.71428,0 -0.16836,0.16835 0.16836,0.54592 0,0.71428 -0.16836,0.16836 -0.54593,-0.16836 -0.71429,0 -0.16836,0.16836 0.2381,0.71429 0,0.71429 -0.23809,0 0,-0.47619 0,-0.71429 0,-0.23809 0,-0.47619 0,-0.71428 0,-0.17324 -0.023,-2.11989 0,-2.14286 0.16836,-0.16836 0.54593,0.16836 0.71429,0 0.16836,-0.16836 -0.10648,-0.50133 0,-0.71429 0.15058,-0.30117 0.47619,-0.47619 0.71428,-0.71428 0.2381,-0.2381 0.41312,-0.5637 0.71429,-0.71429 0.21296,-0.10648 0.50133,0.10648 0.71429,0 2.97268,-1.48634 -0.7636,0.0493 0.71428,-1.42857 0.16836,-0.16836 0.50133,0.10648 0.71429,0 2.97268,-1.48634 -0.7636,0.0493 0.71428,-1.42857 0.16836,-0.16836 0.54593,0.16836 0.71429,0 0.16836,-0.16836 -0.10648,-0.50133 0,-0.71429 1.6345,-3.269 -0.29605,3.03102 1.42857,-2.14285 0.0753,-0.22588 -0.16836,-0.54593 0,-0.71429 0.16836,-0.16836 0.47619,0 0.71429,0 0.17323,0 2.11988,-0.023 2.14285,0 0.33672,0.33672 -0.33671,1.09185 0,1.42857 0.16836,0.16836 0.54593,-0.16836 0.71429,0 0.16836,0.16836 -0.10648,0.50133 0,0.71429 2.36899,2.36899 -0.33672,-0.67344 0.71428,1.42857 0.15059,0.30117 0.60781,0.39485 0.71429,0.71428 0.21429,0.64286 -0.21429,1.5 0,2.14286 0.16836,0.50508 0.33782,1.05211 0.71429,1.42857 0.95238,0.95238 0.71428,-1.19047 0.71428,0.71429"
       id="path3953"
       inkscape:connector-curvature="0"
       transform="translate(79.654015,320.36158)" />
    <path
       style="fill:none;stroke:#000000;stroke-width:1px;stroke-linecap:butt;stroke-linejoin:miter;stroke-opacity:1"
       d="m 127.14286,209.25669 c 0.95238,-0.71429 2.14285,-3.09524 2.85714,-2.14286 0.71429,0.95238 -3.38954,3.20765 -2.85714,2.14286 0.75292,-1.50585 2.38095,-2.38095 3.57143,-3.57143 0.23809,-0.2381 0.43412,-0.52751 0.71428,-0.71429 0.44298,-0.29532 1.05211,-0.33782 1.42857,-0.71428 0.16836,-0.16836 -0.10648,-0.50133 0,-0.71429 0.15059,-0.30117 0.5637,-0.41311 0.71429,-0.71428 0.47619,-0.95238 -0.71429,-0.71429 0.71428,-0.71429"
       id="path3957"
       inkscape:connector-curvature="0"
       transform="translate(79.654015,320.36158)" />
    <path
       style="fill:none;stroke:#000000;stroke-width:1px;stroke-linecap:butt;stroke-linejoin:miter;stroke-opacity:1"
       d="m 142.85714,192.82812 c 1.22602,-0.42588 4.2106,-0.56406 5,-2.14286 0.10648,-0.21296 -0.16836,-0.54593 0,-0.71429 0.86999,-0.86998 1.59587,-0.33458 2.14286,-1.42857 0.10648,-0.21296 -0.10648,-0.50133 0,-0.71428 1.48634,-2.97269 -0.0493,0.76359 1.42857,-0.71429 0.16836,-0.16836 -0.16836,-0.54593 0,-0.71429 0.95238,-0.95238 0.71429,1.19048 0.71429,-0.71428"
       id="path3959"
       inkscape:connector-curvature="0"
       transform="translate(79.654015,320.36158)" />
    <path
       style="fill:none;stroke:#000000;stroke-width:1px;stroke-linecap:butt;stroke-linejoin:miter;stroke-opacity:1"
       d="m 163.57143,176.39954 c 1.98133,-1.1116 3.43099,-2.7167 5,-4.28571 0.23809,-0.23809 0.43412,-0.52751 0.71428,-0.71429 0.44299,-0.29532 1.05211,-0.33782 1.42858,-0.71428 1.47788,-1.47788 -2.2584,0.0578 0.71428,-1.42857 0.21296,-0.10648 0.54593,0.16836 0.71429,0 0.16836,-0.16836 -0.10648,-0.50133 0,-0.71429 0.44132,-0.88264 0.68963,-0.71428 1.42857,-0.71428"
       id="path3961"
       inkscape:connector-curvature="0"
       transform="translate(79.654015,320.36158)" />
    <path
       style="fill:none;stroke:#000000;stroke-width:1px;stroke-linecap:butt;stroke-linejoin:miter;stroke-opacity:1"
       d="m 185.71429,159.25669 c 3.36717,0.20425 -0.8418,-2.72964 0,-3.57143 0.37646,-0.37646 1.00265,-0.39485 1.42857,-0.71429 5.58064,-4.18548 -3.25723,1.27147 3.57143,-2.14285 0.30117,-0.15059 0.41311,-0.56371 0.71428,-0.71429 0.21296,-0.10648 0.54593,0.16836 0.71429,0 0.95238,-0.95238 -1.19048,-0.71429 0.71428,-0.71429"
       id="path3963"
       inkscape:connector-curvature="0"
       transform="translate(79.654015,320.36158)" />
    <path
       style="fill:none;stroke:#000000;stroke-width:1px;stroke-linecap:butt;stroke-linejoin:miter;stroke-opacity:1"
       d="m 203.57143,147.11383 c 6.56443,-6.56443 0.33584,-0.93818 4.28571,-3.57143 0.28017,-0.18678 0.43412,-0.52751 0.71429,-0.71428 0.44298,-0.29532 1.05211,-0.33783 1.42857,-0.71429 0.16836,-0.16836 -0.16836,-0.54593 0,-0.71429 0.023,-0.023 1.96962,0 2.14286,0"
       id="path3965"
       inkscape:connector-curvature="0"
       transform="translate(79.654015,320.36158)" />
    <path
       style="fill:none;stroke:#000000;stroke-width:1px;stroke-linecap:butt;stroke-linejoin:miter;stroke-opacity:1"
       d="m 226.42857,132.82812 c 9.8227,-2.20007 -8.02709,1.60541 3.57143,-0.71429"
       id="path3967"
       inkscape:connector-curvature="0"
       transform="translate(79.654015,320.36158)" />
    <path
       style="fill:none;stroke:#000000;stroke-width:1px;stroke-linecap:butt;stroke-linejoin:miter;stroke-opacity:1"
       d="m 240,126.39954 c 1.67044,-0.0605 2.73621,-1.75548 4.28571,-2.14285 0.46198,-0.1155 1.03236,0.26414 1.42858,0 0.44298,-0.29532 0.2713,-1.13325 0.71428,-1.42857 0.39622,-0.26415 0.97682,0.15058 1.42857,0 0.31944,-0.10648 0.41312,-0.56371 0.71429,-0.71429 0.8985,-0.44925 1.42857,1.02586 1.42857,-0.71429"
       id="path3969"
       inkscape:connector-curvature="0"
       transform="translate(79.654015,320.36158)" />
    <path
       style="fill:none;stroke:#000000;stroke-width:1px;stroke-linecap:butt;stroke-linejoin:miter;stroke-opacity:1"
       d="m 261.42857,115.68526 c 6.46884,-1.61721 1.03623,0.26156 3.57143,-1.42857 0.44298,-0.29532 0.98559,-0.41897 1.42857,-0.71429 0.28017,-0.18678 0.43412,-0.52751 0.71429,-0.71428 1.23115,-0.82077 1.0797,-0.71429 2.14285,-0.71429"
       id="path3971"
       inkscape:connector-curvature="0"
       transform="translate(79.654015,320.36158)" />
    <path
       style="fill:none;stroke:#000000;stroke-width:1px;stroke-linecap:butt;stroke-linejoin:miter;stroke-opacity:1"
       d="m 277.85714,108.5424 c 11.26078,-2.25215 -0.65752,0.45727 5,-1.42857 0.22588,-0.0753 0.50133,0.10648 0.71429,0 0.30117,-0.15058 0.41312,-0.5637 0.71428,-0.71429 0.42592,-0.21295 1.09186,0.33672 1.42858,0 0.16835,-0.16835 -0.16836,-0.54592 0,-0.71428 0.16835,-0.16836 0.47619,0 0.71428,0 0.2381,0 0.47619,0 0.71429,0 1.25725,0 1.42857,0.59078 1.42857,-0.71429"
       id="path3973"
       inkscape:connector-curvature="0"
       transform="translate(79.654015,320.36158)" />
    <path
       style="fill:none;stroke:#000000;stroke-width:1px;stroke-linecap:butt;stroke-linejoin:miter;stroke-opacity:1"
       d="m 33.571429,357.82812 c 0,-5.2381 0,-10.47619 0,-15.71429"
       id="path3975"
       inkscape:connector-curvature="0"
       transform="translate(79.654015,320.36158)" />
    <path
       style="fill:none;stroke:#000000;stroke-width:1px;stroke-linecap:butt;stroke-linejoin:miter;stroke-opacity:1"
       d="m 28.571429,328.5424 c -0.714286,-0.95238 -1.428572,-1.90476 -2.142858,-2.85714 -0.238095,-0.47619 -0.418964,-0.98559 -0.714285,-1.42857 -1.089669,-1.63451 -0.565407,0.44663 -1.428572,-2.14286 -0.07529,-0.22588 0.168359,-0.54593 0,-0.71429 -0.952381,-0.95238 -0.714285,1.19048 -0.714285,-0.71428"
       id="path3977"
       inkscape:connector-curvature="0"
       transform="translate(79.654015,320.36158)" />
    <path
       style="fill:none;stroke:#000000;stroke-width:1px;stroke-linecap:butt;stroke-linejoin:miter;stroke-opacity:1"
       d="m 19.285714,304.25669 c -0.47619,-0.95238 -1.13605,-1.83332 -1.428571,-2.85715 -0.19623,-0.6868 0.117428,-1.43829 0,-2.14285 -1.045021,-6.27013 -0.262751,1.09185 -1.428572,-3.57143 -0.115493,-0.46197 0.150585,-0.97682 0,-1.42857 -0.336717,-1.01015 -1.033116,-1.86851 -1.428571,-2.85715 -0.128157,-0.32039 0,-1.73924 0,-2.14285"
       id="path3979"
       inkscape:connector-curvature="0"
       transform="translate(79.654015,320.36158)" />
    <path
       style="fill:none;stroke:#000000;stroke-width:1px;stroke-linecap:butt;stroke-linejoin:miter;stroke-opacity:1"
       d="m 12.142857,271.39954 c 0,-3.80952 0,-7.61904 0,-11.42857"
       id="path3981"
       inkscape:connector-curvature="0"
       transform="translate(79.654015,320.36158)" />
    <path
       style="fill:none;stroke:#000000;stroke-width:1px;stroke-linecap:butt;stroke-linejoin:miter;stroke-opacity:1"
       d="m 10.714286,245.68526 c 5.589666,0.83157 0.521931,-2.66479 1.428571,-3.57143 0.168359,-0.16836 0.545927,0.16836 0.714286,0 0.146026,-0.14603 -0.141604,-1.85965 0,-2.14286 0.150585,-0.30117 0.563701,-0.41311 0.714286,-0.71428 0.106479,-0.21296 -0.168359,-0.54593 0,-0.71429 0.168358,-0.16836 0.545927,0.16836 0.714285,0 0.168359,-0.16836 -0.07529,-0.48841 0,-0.71428 0.168359,-0.50508 0.545927,-0.9235 0.714286,-1.42858 0.07529,-0.22587 -0.106479,-0.50132 0,-0.71428 0.150585,-0.30117 0.563701,-0.41312 0.714286,-0.71429 0.106479,-0.21296 -0.168359,-0.54592 0,-0.71428 0.952381,-0.95238 0.714285,1.19047 0.714285,-0.71429"
       id="path3983"
       inkscape:connector-curvature="0"
       transform="translate(79.654015,320.36158)" />
    <path
       style="fill:none;stroke:#000000;stroke-width:1px;stroke-linecap:butt;stroke-linejoin:miter;stroke-opacity:1"
       d="m 22.857143,220.68526 c 0.714286,-0.95238 1.190476,-3.57143 2.142857,-2.85714 0.952381,0.71428 -2.984651,3.69893 -2.142857,2.85714 1.078022,-1.07802 2.011473,-2.30292 2.857143,-3.57143 0.132071,-0.19811 -0.168359,-0.54593 0,-0.71429 0.168358,-0.16835 0.545927,0.16836 0.714285,0 0.168359,-0.16835 -0.168358,-0.54592 0,-0.71428 0.952381,-0.95238 0.714286,1.19048 0.714286,-0.71429"
       id="path3985"
       inkscape:connector-curvature="0"
       transform="translate(79.654015,320.36158)" />
    <path
       style="fill:none;stroke:#000000;stroke-width:1px;stroke-linecap:butt;stroke-linejoin:miter;stroke-opacity:1"
       d="m 35,203.5424 c 1.664377,-0.0355 1.493541,-2.88963 2.857143,-3.57143 0.212959,-0.10648 0.501327,0.10648 0.714286,0 0.301169,-0.15058 0.47619,-0.47619 0.714285,-0.71428 0.238096,-0.2381 0.563701,-0.41312 0.714286,-0.71429 0.106479,-0.21296 -0.168359,-0.54593 0,-0.71428 0.704627,-0.70463 1.428571,1.46362 1.428571,-0.71429"
       id="path3987"
       inkscape:connector-curvature="0"
       transform="translate(79.654015,320.36158)" />
    <path
       style="fill:none;stroke:#000000;stroke-width:1px;stroke-linecap:butt;stroke-linejoin:miter;stroke-opacity:1"
       d="m 52.142857,187.11383 c 2.451958,0.55974 2.065582,-2.8185 3.571429,-3.57143 0.212959,-0.10648 0.501327,0.10648 0.714285,0 0.30117,-0.15058 0.413117,-0.5637 0.714286,-0.71428 0.212959,-0.10648 0.545927,0.16835 0.714286,0 0.168359,-0.16836 -0.168359,-0.54593 0,-0.71429 0.168359,-0.16836 0.501327,0.10648 0.714286,0 1.765289,-0.88264 -0.246556,-0.71429 1.428571,-0.71429"
       id="path3989"
       inkscape:connector-curvature="0"
       transform="translate(79.654015,320.36158)" />
    <path
       style="fill:none;stroke:#000000;stroke-width:1px;stroke-linecap:butt;stroke-linejoin:miter;stroke-opacity:1"
       d="m 76.428572,169.97097 c -1.899222,-8.85074 3.156329,-1.01347 4.285714,-2.14285 0.168359,-0.16836 0,-0.47619 0,-0.71429"
       id="path3991"
       inkscape:connector-curvature="0"
       transform="translate(79.654015,320.36158)" />
    <path
       style="fill:none;stroke:#000000;stroke-width:1px;stroke-linecap:butt;stroke-linejoin:miter;stroke-opacity:1"
       d="m 92.142857,154.25669 c 1.190476,-0.71429 2.380953,-1.42857 3.571429,-2.14286 0.238095,0 0.501327,0.10648 0.714286,0 0.967647,-0.48382 0.460924,-0.94475 1.428571,-1.42857 0.212959,-0.10648 0.545927,0.16836 0.714286,0 1.477881,-1.47788 -2.258401,0.0578 0.714285,-1.42857 0.212959,-0.10648 0.545927,0.16836 0.714286,0 0.16836,-0.16836 -0.168359,-0.54593 0,-0.71429 0.16836,-0.16836 0.71429,-0.23809 0.71429,0 0,0.2381 -0.71429,0.2381 -0.71429,0 0,-0.33672 0.47619,-0.47619 0.71429,-0.71428"
       id="path3993"
       inkscape:connector-curvature="0"
       transform="translate(79.654015,320.36158)" />
    <path
       style="fill:none;stroke:#000000;stroke-width:1px;stroke-linecap:butt;stroke-linejoin:miter;stroke-opacity:1"
       d="m 115,137.11383 c 0.24254,-4.09941 2.42461,-0.85516 3.57143,-1.42857 0.30117,-0.15059 0.41312,-0.5637 0.71428,-0.71429 0.21296,-0.10648 0.50133,0.10648 0.71429,0 0.30117,-0.15058 0.41312,-0.5637 0.71429,-0.71428 0.21295,-0.10648 0.50132,0.10648 0.71428,0 1.76529,-0.88265 -0.24655,-0.71429 1.42857,-0.71429"
       id="path3995"
       inkscape:connector-curvature="0"
       transform="translate(79.654015,320.36158)" />
    <path
       style="fill:none;stroke:#000000;stroke-width:1px;stroke-linecap:butt;stroke-linejoin:miter;stroke-opacity:1"
       d="m 135.71429,125.68526 c 0.95238,-0.47619 1.90476,-0.95238 2.85714,-1.42857 0.47619,-0.47619 0.82623,-1.1274 1.42857,-1.42857 0.42592,-0.21296 0.97682,0.15058 1.42857,0 0.63888,-0.21296 0.7897,-1.21562 1.42857,-1.42858 0.003,-0.001 2.14218,6.9e-4 2.14286,0 0.16836,-0.16835 -0.16836,-0.54592 0,-0.71428 0.16836,-0.16836 0.48841,0.0753 0.71429,0 5.17386,-1.72462 -1.12615,0.20593 2.14285,-1.42857 0.21296,-0.10648 0.47619,0 0.71429,0 0.23809,0 0.47619,0 0.71428,0"
       id="path3997"
       inkscape:connector-curvature="0"
       transform="translate(79.654015,320.36158)" />
    <path
       style="fill:none;stroke:#000000;stroke-width:1px;stroke-linecap:butt;stroke-linejoin:miter;stroke-opacity:1"
       d="m 160.71429,114.25669 c 1.60188,-0.29587 2.77048,-1.63778 4.28571,-2.14286 0.22588,-0.0753 0.54593,0.16836 0.71429,0 0.16835,-0.16836 -0.16836,-0.54593 0,-0.71429 0.19544,-0.19544 2.46965,0.19375 2.85714,0 1.76529,-0.88264 -0.24656,-0.71428 1.42857,-0.71428"
       id="path3999"
       inkscape:connector-curvature="0"
       transform="translate(79.654015,320.36158)" />
    <path
       style="fill:none;stroke:#000000;stroke-width:1px;stroke-linecap:butt;stroke-linejoin:miter;stroke-opacity:1"
       d="m 180,107.11383 c 2.38095,0 4.7619,0 7.14286,0 0.47619,0 0.97681,0.15058 1.42857,0 0.50508,-0.16836 0.92349,-0.54593 1.42857,-0.71429 0.46193,-0.15397 2.7915,0 3.57143,0"
       id="path4001"
       inkscape:connector-curvature="0"
       transform="translate(79.654015,320.36158)" />
    <path
       style="fill:none;stroke:#000000;stroke-width:1px;stroke-linecap:butt;stroke-linejoin:miter;stroke-opacity:1"
       d="m 204.28571,101.39954 c 0.95239,-0.47619 1.90477,-0.95238 2.85715,-1.428567 0.23809,-0.238095 0.41311,-0.563701 0.71428,-0.714286 0.21296,-0.106479 0.54593,0.168359 0.71429,0 0.16836,-0.168358 -0.16836,-0.545927 0,-0.714285 0.16836,-0.168359 0.50133,0.106479 0.71428,0 0.30117,-0.150585 0.41312,-0.563701 0.71429,-0.714286 0.21296,-0.106479 0.50133,0.106479 0.71429,0 0.30117,-0.150585 0.41311,-0.563701 0.71428,-0.714286 0.3806,-0.190298 1.04798,0.190299 1.42857,0 0.30117,-0.150584 0.41312,-0.563701 0.71429,-0.714285 0.21296,-0.10648 0.50133,0.106479 0.71428,0 0.30117,-0.150585 0.41312,-0.563702 0.71429,-0.714286 0.21296,-0.10648 0.47619,0 0.71429,0 0.23809,0 0.47619,0 0.71428,0"
       id="path4003"
       inkscape:connector-curvature="0"
       transform="translate(79.654015,320.36158)" />
    <path
       style="fill:none;stroke:#000000;stroke-width:1px;stroke-linecap:butt;stroke-linejoin:miter;stroke-opacity:1"
       d="m 228.57143,92.11383 c 2.03984,-0.757618 3.70733,-0.714285 5.71428,-0.714285 0.2381,0 0.54593,0.168358 0.71429,0 0.16836,-0.168359 -0.16836,-0.545927 0,-0.714286 0.17188,-0.171879 2.68526,0.171879 2.85714,0 0.95238,-0.952381 -1.19047,-0.714286 0.71429,-0.714286"
       id="path4005"
       inkscape:connector-curvature="0"
       transform="translate(79.654015,320.36158)" />
    <path
       style="fill:none;stroke:#000000;stroke-width:1px;stroke-linecap:butt;stroke-linejoin:miter;stroke-opacity:1"
       d="m 250,87.11383 c 1.19048,-0.47619 2.35504,-1.02311 3.57143,-1.428571 0.42591,-0.141969 3.59367,0 4.28571,0 3.09524,0 6.19048,0 9.28572,0"
       id="path4007"
       inkscape:connector-curvature="0"
       transform="translate(79.654015,320.36158)" />
    <path
       style="fill:none;stroke:#000000;stroke-width:1px;stroke-linecap:butt;stroke-linejoin:miter;stroke-opacity:1"
       d="m 277.14286,84.970973 c 2.85714,0 5.71428,0 8.57143,0 0.23809,0 0.71428,-0.238095 0.71428,0 0,0.238095 -0.47619,0 -0.71428,0"
       id="path4009"
       inkscape:connector-curvature="0"
       transform="translate(79.654015,320.36158)" />
    <path
       style="fill:none;stroke:#000000;stroke-width:1px;stroke-linecap:butt;stroke-linejoin:miter;stroke-opacity:1"
       d="m 325.71429,107.82812 c 1.76903,3.04202 1.42857,2.89355 1.42857,5.71428 0,0.2381 -0.16836,0.54593 0,0.71429 0.16836,0.16836 0.54592,-0.16836 0.71428,0 0.0288,0.0287 0,2.59483 0,2.85714"
       id="path4011"
       inkscape:connector-curvature="0"
       transform="translate(79.654015,320.36158)" />
    <path
       style="fill:none;stroke:#000000;stroke-width:1px;stroke-linecap:butt;stroke-linejoin:miter;stroke-opacity:1"
       d="m 330,125.68526 c 0,1.19048 0,2.38095 0,3.57143 0,0.30047 -0.10624,4.07323 0,4.28571 0.88264,1.76529 0.71429,-0.24655 0.71429,1.42857"
       id="path4013"
       inkscape:connector-curvature="0"
       transform="translate(79.654015,320.36158)" />
    <path
       style="fill:none;stroke:#000000;stroke-width:1px;stroke-linecap:butt;stroke-linejoin:miter;stroke-opacity:1"
       d="m 332.14286,144.25669 c 0,0.95238 0.95238,2.85714 0,2.85714 -0.95238,0 0,-3.80952 0,-2.85714 0,3.33333 0,6.66666 0,10"
       id="path4015"
       inkscape:connector-curvature="0"
       transform="translate(79.654015,320.36158)" />
    <path
       style="fill:none;stroke:#000000;stroke-width:1px;stroke-linecap:butt;stroke-linejoin:miter;stroke-opacity:1"
       d="m 332.14286,162.82812 c 1.46203,1.23136 0.30562,6.2225 0.71428,7.85714 0.0817,0.32666 0.5637,0.41312 0.71429,0.71428 0.10648,0.21296 0,0.4762 0,0.71429 0,0.2381 0,0.47619 0,0.71429"
       id="path4017"
       inkscape:connector-curvature="0"
       transform="translate(79.654015,320.36158)" />
    <path
       style="fill:none;stroke:#000000;stroke-width:1px;stroke-linecap:butt;stroke-linejoin:miter;stroke-opacity:1"
       d="m 334.28571,182.11383 c 0.76472,2.03665 0.71429,3.05669 0.71429,5 0,0.47619 -0.0934,0.96163 0,1.42857 0.14766,0.7383 0.59051,1.40018 0.71429,2.14286 0.11742,0.70457 -0.17324,1.4499 0,2.14286 0.0817,0.32666 0.5637,0.41311 0.71428,0.71428 0.44925,0.89851 -1.02585,1.42857 0.71429,1.42857"
       id="path4019"
       inkscape:connector-curvature="0"
       transform="translate(79.654015,320.36158)" />
    <path
       style="fill:none;stroke:#000000;stroke-width:1px;stroke-linecap:butt;stroke-linejoin:miter;stroke-opacity:1"
       d="m 337.14286,204.25669 c 0,3.80952 0,7.61905 0,11.42857"
       id="path4021"
       inkscape:connector-curvature="0"
       transform="translate(79.654015,320.36158)" />
    <path
       style="fill:none;stroke:#000000;stroke-width:1px;stroke-linecap:butt;stroke-linejoin:miter;stroke-opacity:1"
       d="m 337.14286,224.97097 c 0,5.18667 -0.37646,1.89667 0.71428,5.71429 0.26969,0.94392 0.40385,1.92583 0.71429,2.85714 0.16836,0.50508 0.58516,0.91207 0.71428,1.42857 0.58843,2.35372 -0.7528,0.67577 0.71429,2.14286"
       id="path4023"
       inkscape:connector-curvature="0"
       transform="translate(79.654015,320.36158)" />
    <path
       style="fill:none;stroke:#000000;stroke-width:1px;stroke-linecap:butt;stroke-linejoin:miter;stroke-opacity:1"
       d="m 340,250.68526 c 0,4.7619 0,9.52381 0,14.28571"
       id="path4025"
       inkscape:connector-curvature="0"
       transform="translate(79.654015,320.36158)" />
    <path
       style="fill:none;stroke:#000000;stroke-width:1px;stroke-linecap:butt;stroke-linejoin:miter;stroke-opacity:1"
       d="m 340,272.11383 c 0,3.09524 0,6.19048 0,9.28571 0,0.17324 0.023,2.11989 0,2.14286 -0.16836,0.16836 -0.54593,-0.16836 -0.71429,0 -0.16835,0.16836 0,0.47619 0,0.71429 0,0.23809 0,0.47619 0,0.71428"
       id="path4027"
       inkscape:connector-curvature="0"
       transform="translate(79.654015,320.36158)" />
    <path
       style="fill:none;stroke:#000000;stroke-width:1px;stroke-linecap:butt;stroke-linejoin:miter;stroke-opacity:1"
       d="m 339.28571,300.68526 c 0,3.09524 0,6.19048 0,9.28571"
       id="path4029"
       inkscape:connector-curvature="0"
       transform="translate(79.654015,320.36158)" />
    <path
       style="fill:none;stroke:#000000;stroke-width:1px;stroke-linecap:butt;stroke-linejoin:miter;stroke-opacity:1"
       d="m 339.28571,320.68526 c 0,3.09524 0,6.19048 0,9.28571 0,0.47619 0,0.95238 0,1.42857 0,0.4762 -0.21295,1.00266 0,1.42858 0.10648,0.21296 0.4762,0 0.71429,0"
       id="path4031"
       inkscape:connector-curvature="0"
       transform="translate(79.654015,320.36158)" />
    <path
       style="fill:none;stroke:#000000;stroke-width:1px;stroke-linecap:butt;stroke-linejoin:miter;stroke-opacity:1"
       d="m 340,342.11383 c 0,1.19048 0,2.38095 0,3.57143 0,0.23809 -0.16836,0.54593 0,0.71428 0.16836,0.16836 0.54593,-0.16835 0.71429,0 0.35714,0.35715 -0.35715,1.78572 0,2.14286 0.95238,0.95238 0.71428,-1.19047 0.71428,0.71429"
       id="path4033"
       inkscape:connector-curvature="0"
       transform="translate(79.654015,320.36158)" />
    <path
       style="fill:none;stroke:#00d300;stroke-width:1px;stroke-linecap:butt;stroke-linejoin:miter;stroke-opacity:1"
       d="m 287.85714,93.542402 c -2.14285,0 -4.28571,0 -6.42857,0 -0.47619,0 -0.95238,0 -1.42857,0 -0.23809,0 -0.50133,-0.10648 -0.71429,0 -0.30116,0.150584 -0.41311,0.563701 -0.71428,0.714285 -0.21296,0.10648 -0.50133,-0.106479 -0.71429,0 -0.30117,0.150585 -0.41311,0.563701 -0.71428,0.714286 -0.21296,0.10648 -0.54593,-0.168359 -0.71429,0 -1.47788,1.477883 2.2584,-0.05777 -0.71428,1.428572 -0.21296,0.106479 -0.50133,-0.10648 -0.71429,0 -1.62582,1.625816 0.14793,0.188784 -1.42857,0.714285 -5.17387,1.724623 1.12615,-0.205931 -2.14286,1.428572 -0.21296,0.106479 -0.50133,-0.10648 -0.71428,0 -2.97269,1.486338 0.76359,-0.04931 -0.71429,1.428571 -0.16836,0.168357 -0.50133,-0.106479 -0.71429,0 -0.30116,0.150587 -0.39484,0.607807 -0.71428,0.714287 -0.45176,0.15058 -0.97682,-0.15059 -1.42857,0 -0.31944,0.10648 -0.41312,0.5637 -0.71429,0.71428 -0.21296,0.10648 -0.50133,-0.10647 -0.71428,0 -0.6331,0.31655 -1.49264,1.70938 -2.14286,2.14286 -0.44298,0.29532 -0.98559,0.41897 -1.42857,0.71429 -0.28017,0.18677 -0.41312,0.5637 -0.71429,0.71428 -0.21296,0.10648 -0.50133,-0.10648 -0.71428,0 -0.30117,0.15059 -0.41312,0.5637 -0.71429,0.71429 -0.21296,0.10648 -0.54593,-0.16836 -0.71429,0 -0.16835,0.16836 0.16836,0.54593 0,0.71428 -0.16835,0.16836 -0.50132,-0.10647 -0.71428,0 -0.30117,0.15059 -0.43412,0.52751 -0.71429,0.71429 -1.66814,1.11209 -4.04614,1.74505 -5.71428,2.85714 -0.56033,0.37356 -0.82624,1.12741 -1.42857,1.42857 -0.42592,0.21296 -1.09186,-0.33671 -1.42858,0 -0.16835,0.16836 0.16836,0.54593 0,0.71429 -0.16835,0.16836 -0.4884,-0.0753 -0.71428,0 -0.50508,0.16836 -0.98559,0.41897 -1.42857,0.71429 -3.35026,2.2335 2.87406,-0.95803 -2.14286,0.71428 -0.31944,0.10648 -0.47619,0.47619 -0.71429,0.71429 -0.47619,0.23809 -0.91207,0.58516 -1.42857,0.71428 -0.46197,0.1155 -0.97681,-0.15058 -1.42857,0 -0.31944,0.10648 -0.39485,0.60781 -0.71428,0.71429 -0.45176,0.15058 -0.97682,-0.15059 -1.42858,0 -2.64793,0.88264 0.87068,0.71428 -1.42857,0.71428 -1.61374,0 0.31944,-0.10647 -2.14285,0.71429 -0.22588,0.0753 -0.50133,-0.10648 -0.71429,0 -2.17826,1.08913 1.30639,0.56626 -2.14286,1.42857 -0.46197,0.11549 -0.97681,-0.15058 -1.42857,0 -0.31944,0.10648 -0.47619,0.47619 -0.71428,0.71429 -0.47619,0 -0.9666,-0.1155 -1.42858,0 -3.44924,0.86231 0.0354,0.33944 -2.14285,1.42857 -0.42592,0.21296 -1.09186,-0.33672 -1.42857,0 -0.16836,0.16836 0.16835,0.54593 0,0.71428 -0.16836,0.16836 -0.51618,-0.13207 -0.71429,0 -0.56033,0.37356 -0.82623,1.12741 -1.42857,1.42858 -0.42592,0.21295 -0.9666,-0.1155 -1.42857,0 -2.0716,0.51789 -0.83591,0.55726 -2.14286,1.42857 -0.88596,0.59064 -1.97118,0.83793 -2.85714,1.42857 -0.28017,0.18678 -0.47619,0.47619 -0.71429,0.71428 -0.47619,0.2381 -0.98559,0.41897 -1.42857,0.71429 -0.28017,0.18678 -0.41312,0.5637 -0.71429,0.71429 -0.21295,0.10648 -0.50132,-0.10648 -0.71428,0 -0.30117,0.15058 -0.41312,0.5637 -0.71429,0.71428 -0.21296,0.10648 -0.51618,-0.13207 -0.71428,0 -0.56033,0.37356 -0.88983,1.02451 -1.42857,1.42857 -0.85184,0.63888 -2.00531,0.7897 -2.85715,1.42857 -2.65749,1.99312 -0.0755,1.10917 -3.57143,2.85715 -0.67343,0.33671 -1.49723,0.32691 -2.14285,0.71428 -0.57747,0.34648 -0.88983,1.02451 -1.42857,1.42857 -0.85184,0.63888 -1.97118,0.83793 -2.85715,1.42858 -0.28016,0.18677 -0.47619,0.47619 -0.71428,0.71428 -0.47619,0.2381 -0.98559,0.41897 -1.42857,0.71429 -0.56034,0.37355 -0.82624,1.1274 -1.42858,1.42857 -0.21295,0.10648 -0.50132,-0.10648 -0.71428,0 -0.60234,0.30117 -0.86824,1.05502 -1.42857,1.42857 -0.44298,0.29532 -0.98559,0.41897 -1.42857,0.71429 -0.28017,0.18677 -0.39485,0.6078 -0.71429,0.71428 -0.45175,0.15059 -0.97682,-0.15058 -1.42857,0 -0.31944,0.10648 -0.47619,0.47619 -0.71429,0.71429 -0.72608,0.72608 -0.98969,1.14028 -2.14285,1.42857 -0.46198,0.11549 -0.97682,-0.15059 -1.42858,0 -0.31943,0.10648 -0.43412,0.52751 -0.71428,0.71428 -0.88596,0.59065 -2.00531,0.7897 -2.85714,1.42858 -0.53875,0.40406 -0.88983,1.02451 -1.42858,1.42857 -1.10338,0.82754 -3.09625,1.34988 -4.28571,2.14285 -0.28017,0.18678 -0.43412,0.52751 -0.71429,0.71429 -0.88596,0.59064 -1.97118,0.83793 -2.85714,1.42857 -1.30695,0.8713 -0.0713,0.91067 -2.14286,1.42857 -0.46197,0.1155 -0.97681,-0.15058 -1.42857,0 -0.63887,0.21296 -0.78969,1.21562 -1.42857,1.42857 -0.45175,0.15059 -0.97682,-0.15058 -1.42857,0 -0.31944,0.10648 -0.47619,0.4762 -0.71429,0.71429 -0.47619,0 -0.97681,-0.15058 -1.42857,0 -0.63887,0.21296 -0.86824,1.05502 -1.42857,1.42857 -0.44298,0.29532 -0.98559,0.41897 -1.42857,0.71429 -0.28017,0.18677 -0.47619,0.47619 -0.71429,0.71428 -0.47619,0.2381 -0.98559,0.41897 -1.42857,0.71429 -0.28016,0.18678 -0.47619,0.47619 -0.71428,0.71428 -0.71429,0.71429 -1.42857,1.42858 -2.14286,2.14286 -0.2381,0.2381 -0.43412,0.52751 -0.71429,0.71429 -0.44298,0.29532 -0.98559,0.41896 -1.42857,0.71428 -0.66844,0.44563 -2.39968,2.39969 -2.85714,2.85715 -0.2381,0.23809 -0.41312,0.5637 -0.71429,0.71428 -0.21295,0.10648 -0.54592,-0.16836 -0.71428,0 -0.16836,0.16836 0.10648,0.50133 0,0.71429 -0.19075,0.38149 -1.76681,1.76681 -2.14286,2.14285 -0.37351,0.37352 -2.76323,2.57542 -2.85714,2.85715 -0.15059,0.45175 0.15058,0.97681 0,1.42857 -0.0831,0.24933 -3.5271,3.54187 -3.57143,3.57143 -0.19811,0.13207 -0.60781,-0.21296 -0.71429,0 -0.21295,0.42592 0.15059,0.97681 0,1.42857 -0.10647,0.31944 -0.47619,0.47619 -0.71428,0.71428 -0.2381,0.2381 -0.47619,0.4762 -0.71429,0.71429 -0.23809,0.2381 -0.41311,0.5637 -0.71428,0.71429 -0.21296,0.10648 -0.50133,-0.10648 -0.71429,0 -0.30117,0.15058 -0.47619,0.47619 -0.71428,0.71428 -0.2381,0.2381 -0.56371,0.41312 -0.71429,0.71429 -0.10648,0.21296 0.10648,0.50132 0,0.71428 -0.15058,0.30117 -0.5637,0.41312 -0.71429,0.71429 -0.10648,0.21296 0.10648,0.50133 0,0.71428 -0.35143,0.70288 -2.5057,2.15427 -2.85714,2.85715 -0.10648,0.21296 0.10648,0.50132 0,0.71428 -0.0948,0.18965 -1.95321,2.04804 -2.14286,2.14286 -0.21295,0.10648 -0.4884,-0.0753 -0.71428,0 -0.94601,0.31534 -2.27789,1.27398 -2.85714,2.14286 -0.29532,0.44298 -0.27131,1.13325 -0.71429,1.42857 -0.39621,0.26414 -1.00265,-0.21296 -1.42857,0 -0.21296,0.10648 0.16836,0.54593 0,0.71428 -0.16836,0.16836 -0.50133,-0.10647 -0.71429,0 -0.30117,0.15059 -0.41311,0.56371 -0.71428,0.71429 -0.42592,0.21296 -1.00266,-0.21296 -1.42857,0 -0.30117,0.15059 -0.37757,0.71429 -0.71429,0.71429 -0.2381,0 0,-0.47619 0,-0.71429 0,-0.47619 0,-0.95238 0,-1.42857 0,-1.19048 0,-2.38095 0,-3.57143 0,-1.42857 0,-2.85714 0,-4.28571 0,-0.2381 -0.2381,-0.71429 0,-0.71429 0.2381,0 0,0.47619 0,0.71429 0,0.47621 0,0.95235 0,1.42857 0,2.85714 0,5.71428 0,8.57143 0,0.23809 0,0.47619 0,0.71428 0,0.2381 -0.16836,0.54593 0,0.71429 0.0287,0.0287 2.59483,0 2.85714,0 1.66667,0 3.33334,0 5,0 0.2381,0 0.54593,0.16836 0.71429,0 0.16836,-0.16836 -0.16836,-0.54593 0,-0.71429 0.16836,-0.16836 0.50133,0.10648 0.71428,0 0.30117,-0.15058 0.41312,-0.5637 0.71429,-0.71428 0.63888,-0.31944 1.50398,0.31943 2.14286,0 0.21296,-0.10648 -0.16836,-0.54593 0,-0.71429 0.16836,-0.16836 0.54592,0.16836 0.71428,0 0.95238,-0.95238 -1.19047,-0.71429 0.71429,-0.71429"
       id="path4037"
       inkscape:connector-curvature="0"
       transform="translate(79.654015,320.36158)" />
    <path
       style="fill:none;stroke:#00d300;stroke-width:1px;stroke-linecap:butt;stroke-linejoin:miter;stroke-opacity:1"
       d="M 312.14286,118.5424 C 309.85714,121.59002 310,120.20907 310,122.11383 c 0,0.2381 0.16836,0.54593 0,0.71429 -0.16836,0.16835 -0.54593,-0.16836 -0.71429,0 -0.33671,0.33671 0.21296,1.00265 0,1.42857 -0.15058,0.30117 -0.5637,0.41311 -0.71428,0.71428 -0.14161,0.28321 0.14602,1.99683 0,2.14286 -0.16836,0.16836 -0.60781,-0.21296 -0.71429,0 -0.22447,0.44894 0.22448,2.4082 0,2.85714 -0.15058,0.30117 -0.6078,0.39485 -0.71428,0.71429 -0.21429,0.64286 0.21428,1.5 0,2.14286 -0.16836,0.50507 -0.58516,0.91207 -0.71429,1.42857 -0.11549,0.46197 0.15059,0.97681 0,1.42857 -0.10648,0.31944 -0.6078,0.39485 -0.71428,0.71428 0,4.73798 0.33671,-1.01015 -0.71429,2.14286 -0.30117,0.90351 0.23099,1.9332 0,2.85714 0.43052,1.29282 -1.1571,1.32845 -1.42857,2.14286 -0.15059,0.45176 0.15058,0.97682 0,1.42857 -0.10648,0.31944 -0.60781,0.39485 -0.71429,0.71429 -0.15058,0.45175 0.15059,0.97682 0,1.42857 -0.10648,0.31944 -0.5637,0.41312 -0.71428,0.71429 -0.10648,0.21295 0.0753,0.4884 0,0.71428 -0.16836,0.50508 -0.54593,0.9235 -0.71429,1.42857 -0.0753,0.22588 0.0753,0.48841 0,0.71429 -0.16836,0.50508 -0.54593,0.92349 -0.71428,1.42857 -0.0753,0.22588 0.0753,0.48841 0,0.71429 -0.86317,2.58949 -0.33891,0.50835 -1.42858,2.14285 -1.57368,0.35971 -0.37756,1.46943 -0.71428,2.14286 -0.30117,0.60234 -1.05502,0.86824 -1.42857,1.42857 -0.87912,1.31868 -1.26374,2.96703 -2.14286,4.28572 -0.18678,0.28016 -0.47619,0.47619 -0.71429,0.71428 -0.23809,0.47619 -0.41896,0.98559 -0.71428,1.42857 -0.18678,0.28017 -0.5637,0.41312 -0.71429,0.71429 -0.16114,0.32228 0.0365,2.06989 0,2.14286 -0.10648,0.21295 -0.54592,-0.16836 -0.71428,0 -0.16836,0.16835 0.0753,0.4884 0,0.71428 -0.16836,0.50508 -0.41897,0.98559 -0.71429,1.42857 -0.18678,0.28017 -0.52751,0.43412 -0.71428,0.71429 -0.29532,0.44298 -0.41897,0.98559 -0.71429,1.42857 -0.37355,0.56033 -1.1274,0.82623 -1.42857,1.42857 -0.10648,0.21296 0.10648,0.50133 0,0.71429 -0.15059,0.30117 -0.5637,0.41311 -0.71429,0.71428 -0.10648,0.21296 0.10648,0.50133 0,0.71429 -0.15058,0.30117 -0.5637,0.41312 -0.71428,0.71428 -0.10648,0.21296 0.16836,0.54593 0,0.71429 -0.16836,0.16836 -0.47619,0 -0.71429,0 -0.23809,0.2381 -0.52751,0.43412 -0.71428,0.71429 -0.29532,0.44298 -0.54593,0.92349 -0.71429,1.42857 -0.0753,0.22587 0.16836,0.54592 0,0.71428 -0.16836,0.16836 -0.54593,-0.16836 -0.71429,0 -0.23968,0.23969 0.23969,1.18889 0,1.42857 -0.33671,0.33672 -1.21561,-0.42591 -1.42857,0 -0.21296,0.42592 0.15059,0.97682 0,1.42858 -0.10648,0.31943 -0.5637,0.41311 -0.71428,0.71428 -0.10648,0.21296 0.16836,0.54593 0,0.71429 -0.16836,0.16836 -0.54593,-0.16836 -0.71429,0 -0.33672,0.33671 0.21296,1.00265 0,1.42857 -0.15058,0.30117 -0.5637,0.41312 -0.71428,0.71428 -0.39272,0.78544 0.68788,1.44178 -0.71429,2.14286 -0.21296,0.10648 -0.47619,0 -0.71429,0 -0.23809,0 -0.54592,0.16836 -0.71428,0 -0.16836,-0.16836 0,-0.47619 0,-0.71428 0,-0.2381 0,-0.47619 0,-0.71429 0,-2.38095 0,-4.7619 0,-7.14286 0,-1.66666 0,-3.33333 0,-5 0,-0.23809 0,-0.47619 0,-0.71428 0,-0.2381 -0.2381,-0.71429 0,-0.71429 0.23809,0 0,0.47619 0,0.71429 0,0.23809 0,0.47619 0,0.71428 0,0.47619 0,0.95238 0,1.42857 0,0.4762 0.15058,0.97682 0,1.42858 -0.10648,0.31943 -0.5637,0.41311 -0.71429,0.71428 -0.0939,0.18782 0,2.48363 0,2.85714 0,2.38096 0,4.76191 0,7.14286 0,0.48128 0,0.94729 0,1.42857 0,0.2381 0.2381,0.71429 0,0.71429 -0.86594,0 0.1778,-0.89208 0.71429,-1.42857 0.23809,-0.2381 0.47619,-0.47619 0.71428,-0.71429 0.2381,-0.23809 0.56371,-0.41311 0.71429,-0.71428 0.10648,-0.21296 -0.16836,-0.54593 0,-0.71429 0.16836,-0.16836 0.54593,0.16836 0.71429,0 0.16835,-0.16836 -0.16836,-0.54593 0,-0.71429 0.16835,-0.16835 0.50132,0.10648 0.71428,0 0.30117,-0.15058 0.41312,-0.5637 0.71429,-0.71428 0.21296,-0.10648 0.54592,0.16836 0.71428,0 0.16836,-0.16836 -0.16836,-0.54593 0,-0.71429 0.35715,-0.35714 1.78572,0.35715 2.14286,0 0.16836,-0.16836 -0.16836,-0.54592 0,-0.71428 0.33672,-0.33672 1.09185,0.33671 1.42857,0 0.16836,-0.16836 0,-0.47619 0,-0.71429 0.2381,0 0.50133,0.10648 0.71429,0 0.30117,-0.15058 0.41311,-0.5637 0.71428,-0.71428 0.21296,-0.10648 0.50133,0.10648 0.71429,0 0.30117,-0.15059 0.41312,-0.56371 0.71428,-0.71429 0.42592,-0.21296 1.09186,0.33672 1.42858,0 0.16835,-0.16836 -0.2381,-0.71429 0,-0.71429 0.23809,0 0,0.4762 0,0.71429"
       id="path4043"
       inkscape:connector-curvature="0"
       transform="translate(79.654015,320.36158)" />
    <path
       style="fill:none;stroke:#00d300;stroke-width:1px;stroke-linecap:butt;stroke-linejoin:miter;stroke-opacity:1"
       d="m 340,113.5424 c 0,0.95238 -0.18678,1.92326 0,2.85714 0.0215,0.10777 1.27259,1.19461 1.42857,1.42858 0.29532,0.44298 0.54593,0.92349 0.71429,1.42857 0.14201,0.42605 -0.14202,1.00252 0,1.42857 0.16836,0.50508 0.54592,0.92349 0.71428,1.42857 0.0753,0.22588 0,0.47619 0,0.71429 0,0.47619 -0.15058,0.97681 0,1.42857 0.10648,0.31944 0.5637,0.41311 0.71429,0.71428 0.10648,0.21296 -0.10648,0.50133 0,0.71429 0.15058,0.30117 0.5637,0.41312 0.71428,0.71428 0.21296,0.42592 -0.21295,1.00266 0,1.42858 0.15059,0.30117 0.56371,0.41311 0.71429,0.71428 0.18983,0.37965 -0.18983,1.04892 0,1.42857 2.36899,2.36899 -0.33672,-0.67343 0.71429,1.42857 0.15058,0.30117 0.5637,0.41312 0.71428,0.71429 0.10648,0.21296 -0.0753,0.48841 0,0.71429 0.16836,0.50507 0.54593,0.92349 0.71429,1.42857 0.0753,0.22587 -0.10648,0.50132 0,0.71428 0.15058,0.30117 0.5637,0.41312 0.71428,0.71429 0.10648,0.21296 -0.16836,0.54593 0,0.71428 0.16836,0.16836 0.54593,-0.16835 0.71429,0 0.33672,0.33672 -0.21296,1.00266 0,1.42858 2.36899,2.36898 -0.33672,-0.67344 0.71428,1.42857 0.15059,0.30117 0.52751,0.43412 0.71429,0.71428 1.57369,0.35971 0.37757,1.46943 0.71429,2.14286 0.15058,0.30117 0.6078,0.39485 0.71428,0.71429 0.15059,0.45175 -0.15058,0.97681 0,1.42857 0.10648,0.31944 0.5637,0.41311 0.71429,0.71428 0.10648,0.21296 -0.10648,0.50133 0,0.71429 0.85953,1.71906 0.56904,-0.29049 1.42857,1.42857 0.10648,0.21296 -0.10648,0.50133 0,0.71429 0.15058,0.30117 0.5637,0.41311 0.71428,0.71428 0.10648,0.21296 -0.10647,0.50133 0,0.71429 0.15059,0.30117 0.56371,0.41311 0.71429,0.71428 0.10648,0.21296 -0.16836,0.54593 0,0.71429 0.16836,0.16836 0.54593,-0.16836 0.71429,0 0.23968,0.23968 -0.23969,1.18888 0,1.42857 0.16835,0.16836 0.50132,-0.10648 0.71428,0 0.30117,0.15058 0.47619,0.47619 0.71429,0.71429 0.23809,0.23809 0.52751,0.43412 0.71428,0.71428 0.29532,0.44298 0.41897,0.98559 0.71429,1.42857 1.09398,1.64098 0.408,-0.30628 2.14286,1.42857 0.16835,0.16836 -0.0753,0.48841 0,0.71429 1.72462,5.17387 -0.20594,-1.12615 1.42857,2.14286 0.10648,0.21296 -0.16836,0.54592 0,0.71428 0.16836,0.16836 0.54592,-0.16836 0.71428,0 0.16836,0.16836 -0.10648,0.50133 0,0.71429 0.35144,0.70288 2.50571,2.15426 2.85715,2.85714 0.10648,0.21296 -0.10648,0.50133 0,0.71429 1.48634,2.97268 -0.0493,-0.7636 1.42857,0.71428 0.33672,0.33672 -0.21296,1.00266 0,1.42857 0.15058,0.30117 0.47619,0.4762 0.71428,0.71429 0.2381,0.2381 0.43412,0.52751 0.71429,0.71429 0.44298,0.29532 1.05211,0.33782 1.42857,0.71428 0.37646,0.37646 0.41897,0.98559 0.71429,1.42857 0.18677,0.28017 0.47619,0.47619 0.71428,0.71429 0.2381,0.23809 0.43412,0.52751 0.71429,0.71428 0.44298,0.29533 1.05211,0.33783 1.42857,0.71429 0.16836,0.16836 -0.10648,0.50133 0,0.71429 0.15058,0.30117 0.47619,0.47619 0.71428,0.71428 0.2381,0.2381 0.43412,0.52751 0.71429,0.71429 0.44298,0.29532 1.13325,0.2713 1.42857,0.71428 0.26414,0.39622 -0.26414,1.03236 0,1.42857 0.29532,0.44299 1.05211,0.33783 1.42857,0.71429 0.16836,0.16836 -0.10648,0.50133 0,0.71429 0.0948,0.18965 1.95321,2.04803 2.14286,2.14285 0.21296,0.10648 0.54593,-0.16836 0.71429,0 0.16835,0.16836 -0.16836,0.54593 0,0.71429 0.37646,0.37646 1.05211,0.33782 1.42857,0.71428 0.37646,0.37647 0.33782,1.05211 0.71428,1.42858 1.47789,1.47788 -0.0578,-2.2584 1.42857,0.71428 0.10648,0.21296 -0.10647,0.50133 0,0.71429 0.42858,0.85714 1.71429,1.28571 2.14286,2.14285 0.10648,0.21296 -0.16836,0.54593 0,0.71429 0.33672,0.33672 1.09186,-0.33672 1.42857,0 0.16836,0.16836 -0.16836,0.54593 0,0.71429 0.16836,0.16835 0.54593,-0.16836 0.71429,0 0.16836,0.16835 -0.13207,0.51617 0,0.71428 0.53243,0.79865 2.07969,2.07969 2.85714,2.85714 0.2381,0.2381 0.5637,0.41312 0.71429,0.71429 0.10648,0.21296 -0.16836,0.54593 0,0.71429 0.16836,0.16835 0.54592,0.16835 0.71428,0 0.16836,-0.16836 0,-0.47619 0,-0.71429 0,-0.23809 0,-0.47619 0,-0.71429 0,-1.90476 0,-3.80952 0,-5.71428 0,-0.2381 0,-0.47619 0,-0.71429 0,-0.23809 -0.23809,-0.71428 0,-0.71428 0.2381,0 0,0.47619 0,0.71428 0,0.47619 0,0.95238 0,1.42857 0,1.66667 0,3.33334 0,5 0,0.2381 0.16836,0.54593 0,0.71429 -0.16836,0.16836 -0.47619,0 -0.71428,0 -0.2381,0 -0.47619,0 -0.71429,0 -1.90476,0 -3.80952,0 -5.71428,0 -0.17324,0 -2.11989,0.023 -2.14286,0 -0.16836,-0.16836 0,-0.47619 0,-0.71429"
       id="path4045"
       inkscape:connector-curvature="0"
       transform="translate(79.654015,320.36158)" />
    <path
       style="fill:none;stroke:#00b900;stroke-width:1px;stroke-linecap:butt;stroke-linejoin:miter;stroke-opacity:1"
       d="m 356.42857,101.39954 c 1.19048,0.4762 2.38095,0.95239 3.57143,1.42858 0.2381,0 0.48841,-0.0753 0.71429,0 0.50507,0.16835 0.92349,0.54592 1.42857,0.71428 0.22587,0.0753 0.48841,-0.0753 0.71428,0 0.86101,0.287 1.99614,1.14157 2.85715,1.42857 0.22587,0.0753 0.4884,-0.0753 0.71428,0 1.29282,-0.43052 1.32845,1.1571 2.14286,1.42857 0.45175,0.15059 1.03236,-0.26414 1.42857,0 0.44298,0.29533 0.33782,1.05211 0.71429,1.42858 0.16835,0.16835 0.50132,-0.10648 0.71428,0 0.60234,0.30117 0.7897,1.21561 1.42857,1.42857 0.45176,0.15058 1.00266,-0.21296 1.42857,0 0.21296,0.10648 -0.16835,0.54592 0,0.71428 0.16836,0.16836 0.50133,-0.10648 0.71429,0 0.30117,0.15059 0.41312,0.5637 0.71429,0.71429 0.21295,0.10648 0.47619,0 0.71428,0 0.47619,0 0.97682,-0.15059 1.42857,0 0.63888,0.21296 0.82624,1.1274 1.42857,1.42857 0.21296,0.10648 0.50133,-0.10648 0.71429,0 3.26901,1.6345 -3.03101,-0.29605 2.14286,1.42857 0.22587,0.0753 0.50132,-0.10648 0.71428,0 0.30117,0.15059 0.41312,0.5637 0.71429,0.71429 0.42592,0.21296 1.00265,-0.21296 1.42857,0 0.30117,0.15058 0.41312,0.5637 0.71429,0.71428 0.21295,0.10648 0.50132,-0.10648 0.71428,0 0.30117,0.15059 0.41312,0.5637 0.71429,0.71429 0.21296,0.10648 0.47619,0 0.71428,0 0.47619,0 0.97682,-0.15059 1.42857,0 0.63888,0.21296 0.82624,1.1274 1.42858,1.42857 0.42591,0.21296 1.00265,-0.21296 1.42857,0 0.30117,0.15058 0.41311,0.5637 0.71428,0.71429 0.57143,0.28571 1.57143,-0.28572 2.14286,0 0.30117,0.15058 0.41312,0.5637 0.71429,0.71428 0.21295,0.10648 0.47619,0 0.71428,0 0.47619,0 0.97682,-0.15058 1.42857,0 0.31944,0.10648 0.39485,0.60781 0.71429,0.71429 0.45175,0.15058 0.97682,-0.15059 1.42857,0 0.31944,0.10648 0.41312,0.5637 0.71429,0.71428 0.42591,0.21296 0.97681,-0.15058 1.42857,0 0.50507,0.16836 0.92349,0.54593 1.42857,0.71429 0.22588,0.0753 0.50133,-0.10648 0.71428,0 0.30117,0.15058 0.41312,0.5637 0.71429,0.71428 0.21296,0.10648 0.48841,-0.0753 0.71429,0 0.50507,0.16836 0.92349,0.54593 1.42857,0.71429 0.22587,0.0753 0.48841,-0.0753 0.71428,0 0.50508,0.16836 0.9235,0.54593 1.42857,0.71429 0.22588,0.0753 0.48841,-0.0753 0.71429,0 0.50508,0.16835 0.9235,0.54592 1.42857,0.71428 0.22588,0.0753 0.50133,-0.10648 0.71429,0 0.30117,0.15059 0.43412,0.52751 0.71428,0.71429 0.44298,0.29532 0.98559,0.41896 1.42857,0.71428 0.28017,0.18678 0.39485,0.60781 0.71429,0.71429 0.45175,0.15058 1.03236,-0.26414 1.42857,0 0.44298,0.29532 0.27131,1.13325 0.71429,1.42857 0.39621,0.26414 0.97682,-0.15058 1.42857,0 0.31944,0.10648 0.43412,0.52751 0.71428,0.71429 0.44299,0.29532 0.98559,0.41896 1.42858,0.71428 0.28016,0.18678 0.39484,0.60781 0.71428,0.71429 0.45176,0.15058 0.9666,-0.1155 1.42857,0 2.0716,0.5179 0.83591,0.55727 2.14286,1.42857 1.54274,1.02849 1.31441,0.40008 2.85714,1.42857 0.28017,0.18678 0.43412,0.52751 0.71429,0.71429 0.98471,0.65647 1.87243,0.77209 2.85714,1.42857 3.27224,2.18149 -3.03613,-1.16092 2.14286,1.42857 0.47619,0.23809 0.95238,0.47619 1.42857,0.71428 0.47619,0.2381 1.00265,0.39485 1.42857,0.71429 0.53875,0.40406 0.88983,1.02451 1.42857,1.42857 0.85184,0.63888 2.00531,0.7897 2.85715,1.42857 0.80812,0.60609 1.30236,1.58253 2.14285,2.14286 0.88597,0.59064 2.00531,0.7897 2.85715,1.42857 0.53874,0.40406 0.88982,1.02451 1.42857,1.42857 0.42592,0.31944 1.00265,0.39485 1.42857,0.71429 1.0775,0.80812 1.77965,2.04902 2.85714,2.85714 3.45948,2.59461 -0.0419,-0.75616 2.14286,1.42857 0.45746,0.45746 2.1887,2.41152 2.85714,2.85715 0.44298,0.29532 0.98559,0.41896 1.42857,0.71428 0.56034,0.37356 0.95238,0.95238 1.42857,1.42857 0.71429,0.71429 1.42858,1.42857 2.14286,2.14286 0.37605,0.37605 1.95211,1.76137 2.14286,2.14286 0.10648,0.21296 -0.16836,0.54592 0,0.71428 0.16836,0.16836 0.50133,-0.10648 0.71428,0 1.09399,0.547 0.55859,1.27287 1.42858,2.14286 0.37646,0.37646 1.05211,0.33782 1.42857,0.71429 0.75292,0.75292 0.78969,2.0053 1.42857,2.85714 0.40406,0.53875 1.02451,0.88982 1.42857,1.42857 0.63888,0.85184 0.83793,1.97118 1.42857,2.85714 0.18678,0.28017 0.5637,0.41312 0.71429,0.71429 0.10648,0.21296 -0.10648,0.50133 0,0.71428 0.31655,0.6331 1.70937,1.49264 2.14285,2.14286 0.29533,0.44298 0.41897,0.98559 0.71429,1.42857 0.56033,0.8405 1.53677,1.33474 2.14286,2.14286 0.31944,0.42592 0.39485,1.00265 0.71428,1.42857 0.40406,0.53875 1.02451,0.88983 1.42857,1.42857 0.31944,0.42592 0.33783,1.05211 0.71429,1.42857 0.37646,0.37647 0.98559,0.41897 1.42857,0.71429 0.28017,0.18678 0.47619,0.47619 0.71429,0.71429 0.23809,0.23809 0.5637,0.41311 0.71428,0.71428 0.49263,0.98526 -0.86504,0.63891 0.71429,1.42857 0.21296,0.10648 0.50133,-0.10648 0.71428,0 1.31502,0.65751 0.11357,1.48536 1.42858,2.14286 0.42591,0.21296 1.09185,-0.33672 1.42857,0 0.16836,0.16836 -0.10648,0.50133 0,0.71429 0.15058,0.30117 0.5637,0.41311 0.71428,0.71428 0.10648,0.21296 -0.10648,0.50133 0,0.71429 0.42857,0.85714 1.71429,1.28571 2.14286,2.14285 0.63492,1.26985 -0.39682,0.39683 -0.71429,0.71429 -0.16835,0.16836 0,0.47619 0,0.71429 0,1.19047 0,2.38095 0,3.57142 0,0.2381 0,0.4762 0,0.71429 0,0.2381 -0.16835,0.54593 0,0.71429 1.90477,0 -0.23809,-0.2381 0.71429,0.71428 0.16836,0.16836 0.50133,-0.10648 0.71429,0 0.30117,0.15059 0.41311,0.5637 0.71428,0.71429 0.38749,0.19374 2.6617,-0.19545 2.85714,0 0.16836,0.16836 -0.16835,0.54592 0,0.71428 0.16836,0.16836 0.50133,-0.10648 0.71429,0 0.30117,0.15059 0.41312,0.5637 0.71429,0.71429 0.57142,0.28571 1.57142,-0.28572 2.14285,0 2.36899,2.36899 -0.67343,-0.33672 1.42857,0.71428 0.18597,0.093 0.8702,1.27267 1.42858,0.71429 0.16836,-0.16836 0,-0.47619 0,-0.71429 0,-0.47619 0,-0.95238 0,-1.42857 0,-2.14285 0,-4.28571 0,-6.42857 0,-0.95238 0,-1.90476 0,-2.85714 0,-0.2381 -0.2381,-0.71429 0,-0.71429 0.23809,0 0,0.95238 0,0.71429 0,-0.47619 0,-0.95238 0,-1.42857 0,-0.2381 0,0.95238 0,0.71428 0,-0.47619 0.21296,-1.00265 0,-1.42857 -0.10648,-0.21296 -0.54593,-0.16836 -0.71429,0 -0.16836,0.16836 0,0.47619 0,0.71429 0,0.71428 0,1.42857 0,2.14285 0,3.1306 0,3.32636 0,7.14286 0,0.95238 0,1.90476 0,2.85714 0,0.2381 0.2381,0.71429 0,0.71429 -0.54699,0 -1.42345,-2.13774 -1.42857,-2.14286 -0.37646,-0.37646 -0.95238,-0.47619 -1.42857,-0.71428 -0.47619,-0.2381 -0.9235,-0.54593 -1.42857,-0.71429 -0.22588,-0.0753 -0.54593,0.16836 -0.71429,0 -0.16836,-0.16836 0.16836,-0.54593 0,-0.71428 -0.16836,-0.16836 -0.54593,0.16835 -0.71429,0 -0.16835,-0.16836 0.16836,-0.54593 0,-0.71429 -0.16835,-0.16836 -0.54592,0.16836 -0.71428,0 -0.16836,-0.16836 0.16836,-0.54593 0,-0.71429 -0.37646,-0.37646 -1.00265,-0.39484 -1.42857,-0.71428 -0.53875,-0.40406 -0.95238,-0.95238 -1.42857,-1.42857 -0.2381,-0.2381 -0.47619,-0.47619 -0.71429,-0.71429 -0.23809,-0.23809 -0.41312,-0.5637 -0.71429,-0.71428 -0.21295,-0.10648 -0.54592,0.16835 -0.71428,0 -0.33672,-0.33672 0.33672,-1.09186 0,-1.42858 -0.16836,-0.16835 -0.71429,-0.23809 -0.71429,0 0,0.33672 0.47619,0.4762 0.71429,0.71429 0.23809,0.2381 0.43412,0.52751 0.71428,0.71429 0.44299,0.29532 0.9856,0.41896 1.42858,0.71428 0.28016,0.18678 0.41311,0.5637 0.71428,0.71429 0.21296,0.10648 0.54593,-0.16836 0.71429,0 0.16836,0.16836 -0.16836,0.54592 0,0.71428 0.16836,0.16836 0.54592,-0.16836 0.71428,0 1.47789,1.47789 -2.2584,-0.0578 0.71429,1.42857 0.21296,0.10648 0.50133,-0.10647 0.71428,0 0.60234,0.30117 0.82624,1.12741 1.42858,1.42858 0.21296,0.10648 0.54592,-0.16836 0.71428,0 0.16836,0.16835 -0.16836,0.54592 0,0.71428 0.16836,0.16836 0.50133,-0.10648 0.71429,0 0.60234,0.30117 0.82623,1.1274 1.42857,1.42857 0.21296,0.10648 0.50133,-0.10648 0.71428,0 0.60234,0.30117 0.82624,1.12741 1.42858,1.42857 0.21296,0.10648 0.54592,-0.16835 0.71428,0 0.16836,0.16836 -0.10648,0.50133 0,0.71429 0.15059,0.30117 0.95238,0.47619 0.71429,0.71429 -0.33672,0.33671 -0.95238,0 -1.42857,0 -0.46937,0 -1.73986,0.13433 -2.14286,0 -1.01015,-0.33672 -1.82414,-1.17032 -2.85714,-1.42858 -0.0239,-0.006 -2.13907,0.004 -2.14286,0 -0.23693,-0.23692 0.23693,-1.19164 0,-1.42857 -0.16836,-0.16836 -0.50133,0.10648 -0.71429,0 -0.30117,-0.15058 -0.43412,-0.52751 -0.71428,-0.71428 -0.44298,-0.29532 -0.98559,-0.41897 -1.42857,-0.71429 -0.28017,-0.18678 -0.39485,-0.6078 -0.71429,-0.71428 -0.45175,-0.15059 -0.97682,0.15058 -1.42857,0 -0.31944,-0.10648 -0.41312,-0.5637 -0.71429,-0.71429 -0.21296,-0.10648 -0.47619,0 -0.71428,0 -0.2381,0 -0.47619,0 -0.71429,0"
       id="path4049"
       inkscape:connector-curvature="0"
       transform="translate(79.654015,320.36158)" />
  </g>
</svg>
