<?xml version="1.0" encoding="UTF-8" standalone="no"?>
<!-- Created with Inkscape (http://www.inkscape.org/) -->

<svg
   xmlns:dc="http://purl.org/dc/elements/1.1/"
   xmlns:cc="http://creativecommons.org/ns#"
   xmlns:rdf="http://www.w3.org/1999/02/22-rdf-syntax-ns#"
   xmlns:svg="http://www.w3.org/2000/svg"
   xmlns="http://www.w3.org/2000/svg"
   xmlns:sodipodi="http://sodipodi.sourceforge.net/DTD/sodipodi-0.dtd"
   xmlns:inkscape="http://www.inkscape.org/namespaces/inkscape"
   width="640"
   height="480"
   id="svg2"
   version="1.1"
   inkscape:version="0.48.3.1 r9886"
   sodipodi:docname="welles-not-done.svg">
  <defs
     id="defs4" />
  <sodipodi:namedview
     id="base"
     pagecolor="#ffffff"
     bordercolor="#666666"
     borderopacity="1.0"
     inkscape:pageopacity="0.0"
     inkscape:pageshadow="2"
     inkscape:zoom="3.959798"
     inkscape:cx="623.22834"
     inkscape:cy="382.34701"
     inkscape:document-units="px"
     inkscape:current-layer="layer1"
     showgrid="false"
     inkscape:window-width="1680"
     inkscape:window-height="1050"
     inkscape:window-x="1920"
     inkscape:window-y="0"
     inkscape:window-maximized="1"
     fit-margin-top="0"
     fit-margin-left="0"
     fit-margin-right="0"
     fit-margin-bottom="0"
     width="640px" />
  <metadata
     id="metadata7">
    <rdf:RDF>
      <cc:Work
         rdf:about="">
        <dc:format>image/svg+xml</dc:format>
        <dc:type
           rdf:resource="http://purl.org/dc/dcmitype/StillImage" />
        <dc:title />
      </cc:Work>
    </rdf:RDF>
  </metadata>
  <g
     inkscape:label="Calque 1"
     inkscape:groupmode="layer"
     id="layer1"
     transform="translate(-7.3571429,-237.75756)">
    <path
       style="fill:#293638;fill-opacity:1;stroke:#000000;stroke-width:1.99297094px;stroke-linecap:butt;stroke-linejoin:miter;stroke-opacity:1"
       d="m 43.94989,561.87661 0.89458,11.32656 35.783174,0 0,10.19386 34.888596,1.13266 0,7.92855 31.31028,-1.13263 0,9.06123 32.20487,-1.13266 0.89456,11.32652 31.31028,0 0,9.06123 31.31028,-1.13265 0,6.79592 127.03027,0 0.89458,11.32652 35.78318,-1.13265 0,10.1939 71.56634,-2.26533 0,12.45919 32.20487,0 0,12.45918 32.20485,0 0,7.92859 28.62654,0 0,9.06122 31.31028,0 0,-124.59184 z"
       id="path4836"
       inkscape:connector-curvature="0" />
    <path
       style="fill:#cf0000;fill-opacity:1;stroke:#000000;stroke-width:1.77117682px;stroke-linecap:butt;stroke-linejoin:miter;stroke-opacity:1"
       d="m 12.875295,306.52379 0,254.92293 558.553265,0 -0.63256,-16.44663 -29.09792,0 0,-17.07921 -31.62816,-1.26514 0,-22.77226 -32.2607,-1.89769 0,-13.91639 -73.37735,-0.63256 0,-21.50714 -34.79095,0 -0.63258,-22.77227 -32.26072,-1.26514 0,-18.34433 -30.36302,0 -1.26512,-18.9769 -35.42355,0 -1.26512,-15.81408 -25.93509,0 1.89768,55.03301 -34.1584,0.63256 0,-24.66997 -32.26073,-0.63256 0.63257,-22.13971 -32.26072,-0.63257 -0.63257,-20.87458 -30.99559,0 0,-27.20021 -35.423534,0 0,-15.81407 -37.95379,-0.63259 1.89769,-24.03739 z"
       id="path4195"
       inkscape:connector-curvature="0" />
    <path
       style="fill:none;stroke:#000000;stroke-width:2.16318583px;stroke-linecap:butt;stroke-linejoin:miter;stroke-opacity:1"
       d="m 43.111812,255.27706 1.89769,461.39893"
       id="path3793"
       inkscape:connector-curvature="0" />
    <path
       style="fill:none;stroke:#000000;stroke-width:2.16318583px;stroke-linecap:butt;stroke-linejoin:miter;stroke-opacity:1"
       d="m 79.104656,251.21977 1.89769,461.39894"
       id="path3793-8"
       inkscape:connector-curvature="0" />
    <path
       style="fill:none;stroke:#000000;stroke-width:2.16318583px;stroke-linecap:butt;stroke-linejoin:miter;stroke-opacity:1"
       d="m 114.52819,251.21977 1.89769,461.39894"
       id="path3793-8-4"
       inkscape:connector-curvature="0" />
    <path
       style="fill:none;stroke:#000000;stroke-width:2.16318583px;stroke-linecap:butt;stroke-linejoin:miter;stroke-opacity:1"
       d="m 146.40938,251.21977 1.89768,461.39894"
       id="path3793-8-4-0"
       inkscape:connector-curvature="0" />
    <path
       style="fill:none;stroke:#000000;stroke-width:2.16318583px;stroke-linecap:butt;stroke-linejoin:miter;stroke-opacity:1"
       d="m 178.29056,251.21977 1.89768,461.39894"
       id="path3793-8-4-0-5"
       inkscape:connector-curvature="0" />
    <path
       style="fill:none;stroke:#000000;stroke-width:2.16318583px;stroke-linecap:butt;stroke-linejoin:miter;stroke-opacity:1"
       d="m 210.17174,251.21977 1.89769,461.39894"
       id="path3793-8-4-0-5-7"
       inkscape:connector-curvature="0" />
    <path
       style="fill:none;stroke:#000000;stroke-width:2.16318583px;stroke-linecap:butt;stroke-linejoin:miter;stroke-opacity:1"
       d="m 242.05291,251.21977 1.8977,461.39894"
       id="path3793-8-4-0-5-3"
       inkscape:connector-curvature="0" />
    <path
       style="fill:none;stroke:#000000;stroke-width:2.16318583px;stroke-linecap:butt;stroke-linejoin:miter;stroke-opacity:1"
       d="m 270.39175,251.21977 1.89769,461.39894"
       id="path3793-8-4-0-5-5"
       inkscape:connector-curvature="0" />
    <path
       style="fill:none;stroke:#000000;stroke-width:2.16318583px;stroke-linecap:butt;stroke-linejoin:miter;stroke-opacity:1"
       d="m 305.81528,251.21977 1.8977,461.39894"
       id="path3793-8-4-0-5-1"
       inkscape:connector-curvature="0" />
    <path
       style="fill:none;stroke:#000000;stroke-width:2.16318583px;stroke-linecap:butt;stroke-linejoin:miter;stroke-opacity:1"
       d="m 337.69646,251.21977 1.8977,461.39894"
       id="path3793-8-4-0-5-37"
       inkscape:connector-curvature="0" />
    <path
       style="fill:none;stroke:#000000;stroke-width:2.16318583px;stroke-linecap:butt;stroke-linejoin:miter;stroke-opacity:1"
       d="m 369.57765,251.21977 1.89768,461.39894"
       id="path3793-8-4-0-5-4"
       inkscape:connector-curvature="0" />
    <path
       style="fill:none;stroke:#000000;stroke-width:2.16318583px;stroke-linecap:butt;stroke-linejoin:miter;stroke-opacity:1"
       d="m 405.00119,251.21977 1.89769,461.39894"
       id="path3793-8-4-0-5-9"
       inkscape:connector-curvature="0" />
    <path
       style="fill:none;stroke:#000000;stroke-width:2.16318583px;stroke-linecap:butt;stroke-linejoin:miter;stroke-opacity:1"
       d="m 441.05729,249.52136 1.8977,461.39894"
       id="path3793-8-4-0-5-99"
       inkscape:connector-curvature="0" />
    <path
       style="fill:none;stroke:#000000;stroke-width:2.16318583px;stroke-linecap:butt;stroke-linejoin:miter;stroke-opacity:1"
       d="m 476.48084,249.52136 1.89768,461.39894"
       id="path3793-8-4-0-5-8"
       inkscape:connector-curvature="0" />
    <path
       style="fill:none;stroke:#000000;stroke-width:2.16318583px;stroke-linecap:butt;stroke-linejoin:miter;stroke-opacity:1"
       d="m 508.99457,253.2956 1.8977,461.39892"
       id="path3793-8-4-0-5-0"
       inkscape:connector-curvature="0" />
    <path
       style="fill:none;stroke:#000000;stroke-width:2.16318583px;stroke-linecap:butt;stroke-linejoin:miter;stroke-opacity:1"
       d="m 540.87575,248.01168 1.8977,461.39893"
       id="path3793-8-4-0-5-90"
       inkscape:connector-curvature="0" />
    <path
       style="fill:none;stroke:#000000;stroke-width:2.16318583px;stroke-linecap:butt;stroke-linejoin:miter;stroke-opacity:1"
       d="m 569.21458,248.01168 1.8977,461.39893"
       id="path3793-8-4-0-5-58"
       inkscape:connector-curvature="0" />
    <path
       style="fill:none;stroke:#000000;stroke-width:2.16318583px;stroke-linecap:butt;stroke-linejoin:miter;stroke-opacity:1"
       d="m 601.09576,248.01168 1.8977,461.39893"
       id="path3793-8-4-0-5-46"
       inkscape:connector-curvature="0" />
    <path
       style="fill:none;stroke:#000000;stroke-width:2.16318583px;stroke-linecap:butt;stroke-linejoin:miter;stroke-opacity:1"
       d="m 629.43459,253.2956 1.8977,461.39892"
       id="path3793-8-4-0-5-371"
       inkscape:connector-curvature="0" />
    <path
       style="fill:#00de00;fill-opacity:1;stroke:#000000;stroke-width:1.77117682px;stroke-linecap:butt;stroke-linejoin:miter;stroke-opacity:1"
       d="m 13.507858,279.32356 29.097904,-0.63256 1.897691,30.36303 34.790973,-1.89769 0,25.93509 36.056104,-1.26514 -0.63257,17.07922 32.26072,-0.63256 1.26513,27.83277 31.62815,-1.26512 -1.26512,22.13971 32.89328,-0.63257 0,25.30254 31.62817,-0.63258 -0.63257,22.77229 -32.26072,0.63256 -0.63258,-24.03741 -30.99558,0 -0.63257,-24.0374 -30.99559,0 0,-20.87458 -31.62815,0.63256 0,-27.20021 -35.423541,0 -1.265127,-15.81408 -37.321226,-0.63258 1.265126,-24.66995 -30.36303,-1.26511 z"
       id="path3976"
       inkscape:connector-curvature="0" />
    <path
       style="fill:#00de00;fill-opacity:1;stroke:#000000;stroke-width:1.77117682px;stroke-linecap:butt;stroke-linejoin:miter;stroke-opacity:1"
       d="m 242.49572,370.41266 27.20021,0 0,19.60944 36.68867,-0.63256 0,14.54896 30.99558,0 0,20.24202 32.8933,-0.63256 0,21.50714 35.42353,-0.63255 0,24.03739 36.68866,-0.63256 0,20.24202 35.42355,0 31.62814,-0.63257 0,17.71176 32.8933,0 0,22.77229 29.0979,0 -1.26514,16.44664 32.89328,0 0,15.18152 -31.62814,0.63256 0,-15.81408 -29.0979,-0.63256 0,-15.81408 -32.8933,-0.63258 0,-24.03738 -31.62814,0 -1.26514,-15.81409 -71.47963,-1.26512 0,-18.9769 -35.42353,-0.63255 0,-23.40485 -30.9956,-0.63256 -1.26514,-18.97689 -30.99558,0 0,-20.24203 -36.68867,0 0,-15.1815 -27.20021,-0.63257 z"
       id="path3978"
       inkscape:connector-curvature="0" />
    <g
       id="g3085">
      <rect
         ry="12.325022"
         y="263.4537"
         x="465.17703"
         height="92.40448"
         width="139.35538"
         id="rect3812"
         style="fill:#b3b3b3;fill-opacity:1;stroke:#888d96;stroke-width:0;stroke-linecap:butt;stroke-linejoin:miter;stroke-miterlimit:0;stroke-opacity:1;stroke-dasharray:none" />
      <rect
         ry="5.2470212"
         y="268.34268"
         x="479.8772"
         height="23.903099"
         width="28.567118"
         id="rect3776"
         style="fill:#00de00;fill-opacity:1;stroke:#888d96;stroke-width:0;stroke-linecap:butt;stroke-linejoin:miter;stroke-miterlimit:0;stroke-opacity:1;stroke-dasharray:none" />
      <rect
         ry="5.2470212"
         y="295.4523"
         x="479.8772"
         height="23.903099"
         width="28.567118"
         id="rect3776-6"
         style="fill:#cf0000;fill-opacity:1;stroke:#888d96;stroke-width:0;stroke-linecap:butt;stroke-linejoin:miter;stroke-miterlimit:0;stroke-opacity:1;stroke-dasharray:none" />
      <text
         sodipodi:linespacing="125%"
         id="text3796"
         y="286.41898"
         x="516.51019"
         style="font-size:16px;font-style:normal;font-weight:normal;line-height:125%;letter-spacing:0px;word-spacing:0px;fill:#000000;fill-opacity:1;stroke:none;font-family:Sans"
         xml:space="preserve"><tspan
           y="286.41898"
           x="516.51019"
           id="tspan3798"
           sodipodi:role="line">validé</tspan></text>
      <text
         sodipodi:linespacing="125%"
         id="text3800"
         y="313.09061"
         x="517.30743"
         style="font-size:16px;font-style:normal;font-weight:normal;line-height:125%;letter-spacing:0px;word-spacing:0px;fill:#000000;fill-opacity:1;stroke:none;font-family:Sans"
         xml:space="preserve"><tspan
           y="313.09061"
           x="517.30743"
           id="tspan3802"
           sodipodi:role="line">à faire</tspan></text>
      <rect
         style="fill:#293638;fill-opacity:1;stroke:#888d96;stroke-width:0;stroke-linecap:butt;stroke-linejoin:miter;stroke-miterlimit:0;stroke-opacity:1;stroke-dasharray:none"
         id="rect4074"
         width="28.567118"
         height="23.903099"
         x="479.8772"
         y="323.4523"
         ry="5.2470212" />
      <text
         xml:space="preserve"
         style="font-size:16px;font-style:normal;font-weight:normal;line-height:125%;letter-spacing:0px;word-spacing:0px;fill:#000000;fill-opacity:1;stroke:none;font-family:Sans"
         x="517.30743"
         y="339.09061"
         id="text4076"
         sodipodi:linespacing="125%"><tspan
           sodipodi:role="line"
           id="tspan4078"
           x="517.30743"
           y="339.09061">à re-validé</tspan></text>
    </g>
  </g>
</svg>
